<?xml version="1.0" encoding="UTF-8"?>
<svg xmlns="http://www.w3.org/2000/svg" version="1.1" width="360px" height="360px" style="shape-rendering:geometricPrecision; text-rendering:geometricPrecision; image-rendering:optimizeQuality; fill-rule:evenodd; clip-rule:evenodd" xmlns:xlink="http://www.w3.org/1999/xlink">
<g><path style="opacity:0.143" fill="#f9f1e4" d="M 317.5,14.5 C 311.209,9.24839 303.876,6.41506 295.5,6C 288.736,5.28598 282.069,5.78598 275.5,7.5C 279.57,5.11133 284.07,4.11133 289,4.5C 297.959,4.39614 306.459,6.22947 314.5,10C 316.141,11.129 317.141,12.629 317.5,14.5 Z"/></g>
<g><path style="opacity:0.541" fill="#929292" d="M 117.5,9.5 C 101.151,9.31708 84.8177,9.65041 68.5,10.5C 77.6111,8.94219 86.9444,8.27553 96.5,8.5C 103.675,8.50035 110.675,8.83368 117.5,9.5 Z"/></g>
<g><path style="opacity:0.102" fill="#b3b4b5" d="M 119.5,9.5 C 131.705,9.79688 143.705,10.7969 155.5,12.5C 143.291,12.2487 131.291,11.2487 119.5,9.5 Z"/></g>
<g><path style="opacity:1" fill="#dbc2a8" d="M 317.5,14.5 C 319.625,20.0995 321.791,25.7661 324,31.5C 324.215,36.9151 324.715,42.2484 325.5,47.5C 324.469,49.9608 323.802,52.6275 323.5,55.5C 322.5,55.5 321.5,55.5 320.5,55.5C 319.167,55.5 317.833,55.5 316.5,55.5C 316.105,52.4775 317.105,51.4775 319.5,52.5C 320.298,52.0431 320.631,51.3764 320.5,50.5C 321.631,42.9127 321.798,35.246 321,27.5C 317.883,22.1076 314.383,16.9409 310.5,12C 298.73,8.43076 286.73,7.59742 274.5,9.5C 274.833,8.83333 275.167,8.16667 275.5,7.5C 282.069,5.78598 288.736,5.28598 295.5,6C 303.876,6.41506 311.209,9.24839 317.5,14.5 Z"/></g>
<g><path style="opacity:0.651" fill="#7d7f7d" d="M 68.5,10.5 C 66.1617,12.0395 63.4951,12.7062 60.5,12.5C 62.9052,11.2318 65.5718,10.5651 68.5,10.5 Z"/></g>
<g><path style="opacity:1" fill="#d99d65" d="M 317.5,47.5 C 316.208,49.2549 315.208,51.2549 314.5,53.5C 311.557,54.2435 308.557,54.7435 305.5,55C 282.464,55.9126 259.464,55.4126 236.5,53.5C 237.624,52.086 238.624,50.586 239.5,49C 240.833,48.8333 242.167,48.6667 243.5,48.5C 247.751,49.9184 252.084,50.9184 256.5,51.5C 256.5,50.1667 256.5,48.8333 256.5,47.5C 257.552,47.6495 258.552,47.4828 259.5,47C 260.104,44.5325 261.438,42.5325 263.5,41C 268.993,40.2117 274.493,39.7117 280,39.5C 282.506,31.505 279.672,28.505 271.5,30.5C 270.486,29.2353 268.986,28.5687 267,28.5C 265.5,28.6667 264,28.8333 262.5,29C 260.796,32.6914 258.129,33.858 254.5,32.5C 253.184,28.7145 253.518,25.0478 255.5,21.5C 258.469,20.1932 261.135,18.5265 263.5,16.5C 264.209,15.596 265.209,15.2627 266.5,15.5C 270.101,13.1345 274.101,11.3012 278.5,10C 308.731,4.73219 321.731,17.2322 317.5,47.5 Z"/></g>
<g><path style="opacity:0.706" fill="#808080" d="M 60.5,12.5 C 60.0269,13.9063 59.0269,14.573 57.5,14.5C 57.9731,13.0937 58.9731,12.427 60.5,12.5 Z"/></g>
<g><path style="opacity:0.176" fill="#b4b4b4" d="M 167.5,13.5 C 173.034,13.6685 178.367,14.3351 183.5,15.5C 177.902,15.8443 172.568,15.1776 167.5,13.5 Z"/></g>
<g><path style="opacity:0.063" fill="#fbeddb" d="M 275.5,7.5 C 275.167,8.16667 274.833,8.83333 274.5,9.5C 271.527,11.1468 268.86,13.1468 266.5,15.5C 265.209,15.2627 264.209,15.596 263.5,16.5C 261.167,17.1667 258.833,17.8333 256.5,18.5C 263.252,15.6219 269.585,11.9552 275.5,7.5 Z"/></g>
<g><path style="opacity:0.024" fill="#d0d1d3" d="M 183.5,15.5 C 189.069,15.376 194.402,16.0427 199.5,17.5C 193.949,17.473 188.616,16.8063 183.5,15.5 Z"/></g>
<g><path style="opacity:1" fill="#dff4f2" d="M 105.5,14.5 C 115.753,14.3684 125.753,15.3684 135.5,17.5C 132.781,17.3975 130.115,17.7308 127.5,18.5C 123.958,16.909 120.291,16.409 116.5,17C 125.041,21.2443 133.708,25.2443 142.5,29C 144.768,30.5577 145.934,32.7244 146,35.5C 150.927,36.8896 152.76,39.8896 151.5,44.5C 151.167,44.5 150.833,44.5 150.5,44.5C 146.78,40.2758 142.78,36.1092 138.5,32C 136.76,30.3055 134.76,29.1389 132.5,28.5C 128.286,26.2263 123.953,24.2263 119.5,22.5C 119.389,21.8826 119.056,21.3826 118.5,21C 109.213,19.5173 99.8794,19.184 90.5,20C 86.4144,20.5942 82.7478,21.7609 79.5,23.5C 79.5,23.8333 79.5,24.1667 79.5,24.5C 75.7379,24.6911 72.0712,25.3578 68.5,26.5C 58.4428,20.2455 59.4428,16.5788 71.5,15.5C 82.815,14.7059 94.1483,14.3725 105.5,14.5 Z"/></g>
<g><path style="opacity:0.467" fill="#f6ede1" d="M 317.5,14.5 C 320.415,17.9901 322.582,21.9901 324,26.5C 325.305,34.6455 326.805,42.6455 328.5,50.5C 327.167,49.8333 326.167,48.8333 325.5,47.5C 324.715,42.2484 324.215,36.9151 324,31.5C 321.791,25.7661 319.625,20.0995 317.5,14.5 Z"/></g>
<g><path style="opacity:0.102" fill="#c6c7c7" d="M 199.5,17.5 C 216.27,19.5206 232.937,22.1873 249.5,25.5C 249.5,25.8333 249.5,26.1667 249.5,26.5C 248.833,26.5 248.167,26.5 247.5,26.5C 231.376,23.4878 215.376,20.4878 199.5,17.5 Z"/></g>
<g><path style="opacity:1" fill="#daf8fa" d="M 135.5,17.5 C 142.508,17.3337 149.508,17.5004 156.5,18C 168.741,20.1577 181.074,21.6577 193.5,22.5C 197.919,23.9715 202.586,24.6382 207.5,24.5C 212.707,25.4919 218.04,26.4919 223.5,27.5C 223.5,28.5 223.5,29.5 223.5,30.5C 223.5,30.8333 223.5,31.1667 223.5,31.5C 220.941,34.0898 220.941,36.7565 223.5,39.5C 224.097,40.1386 224.93,40.472 226,40.5C 228.13,39.0386 230.464,38.0386 233,37.5C 234.842,39.1605 237.009,40.1605 239.5,40.5C 239.5,41.8333 239.5,43.1667 239.5,44.5C 234.95,43.7242 232.284,45.5576 231.5,50C 228.854,50.4974 226.187,50.6641 223.5,50.5C 223.512,45.6753 221.179,43.5086 216.5,44C 214.792,46.0435 212.792,47.7101 210.5,49C 212.596,50.7658 214.929,52.0991 217.5,53C 215.866,53.4935 214.199,53.6602 212.5,53.5C 211.5,53.5 210.5,53.5 209.5,53.5C 205.081,52.0285 200.414,51.3618 195.5,51.5C 194.833,51.5 194.167,51.5 193.5,51.5C 191.952,50.2057 189.952,49.5391 187.5,49.5C 182.511,48.9455 177.511,48.6122 172.5,48.5C 167.532,47.8357 162.532,47.3357 157.5,47C 155.148,46.7599 153.148,45.9265 151.5,44.5C 152.76,39.8896 150.927,36.8896 146,35.5C 145.934,32.7244 144.768,30.5577 142.5,29C 133.708,25.2443 125.041,21.2443 116.5,17C 120.291,16.409 123.958,16.909 127.5,18.5C 130.115,17.7308 132.781,17.3975 135.5,17.5 Z"/></g>
<g><path style="opacity:1" fill="#c8925c" d="M 111.5,23.5 C 115.291,24.9527 119.291,26.1194 123.5,27C 127.643,28.6046 131.476,30.7713 135,33.5C 135.273,35.1012 135.773,36.6012 136.5,38C 132.514,38.4988 128.514,38.6655 124.5,38.5C 109.214,35.6101 93.8811,32.7768 78.5,30C 76.5087,29.6264 74.842,28.793 73.5,27.5C 75.5,26.5 77.5,25.5 79.5,24.5C 87.5152,24.0533 95.5152,23.3866 103.5,22.5C 106.355,22.5025 109.022,22.8359 111.5,23.5 Z"/></g>
<g><path style="opacity:1" fill="#634d3b" d="M 247.5,26.5 C 248.167,26.5 248.833,26.5 249.5,26.5C 250.693,26.9704 251.36,27.9704 251.5,29.5C 251.48,30.7261 251.147,31.7261 250.5,32.5C 250.5,30.8333 250.5,29.1667 250.5,27.5C 249.209,27.7373 248.209,27.404 247.5,26.5 Z"/></g>
<g><path style="opacity:1" fill="#cba885" d="M 263.5,16.5 C 261.135,18.5265 258.469,20.1932 255.5,21.5C 253.518,25.0478 253.184,28.7145 254.5,32.5C 258.129,33.858 260.796,32.6914 262.5,29C 264,28.8333 265.5,28.6667 267,28.5C 268.986,28.5687 270.486,29.2353 271.5,30.5C 266.344,29.3817 262.677,31.0484 260.5,35.5C 258.262,36.5366 255.929,36.7033 253.5,36C 250.938,34.207 248.272,32.707 245.5,31.5C 247.216,31.6287 248.883,31.962 250.5,32.5C 251.147,31.7261 251.48,30.7261 251.5,29.5C 251.36,27.9704 250.693,26.9704 249.5,26.5C 249.5,26.1667 249.5,25.8333 249.5,25.5C 251.223,23.7472 252.723,21.7472 254,19.5C 254.671,18.7476 255.504,18.4142 256.5,18.5C 258.833,17.8333 261.167,17.1667 263.5,16.5 Z"/></g>
<g><path style="opacity:1" fill="#ab8763" d="M 69.5,27.5 C 70.8333,27.5 72.1667,27.5 73.5,27.5C 74.842,28.793 76.5087,29.6264 78.5,30C 93.8811,32.7768 109.214,35.6101 124.5,38.5C 128.002,39.3061 131.669,39.9728 135.5,40.5C 137.16,41.1716 138.493,42.1716 139.5,43.5C 123.569,40.3447 107.569,37.5114 91.5,35C 83.8405,33.0952 76.5071,30.5952 69.5,27.5 Z"/></g>
<g><path style="opacity:1" fill="#1b0f09" d="M 271.5,30.5 C 273.418,31.8681 275.585,32.8681 278,33.5C 278.494,35.1341 278.66,36.8008 278.5,38.5C 276.139,38.3259 273.806,37.9926 271.5,37.5C 267.929,36.3578 264.262,35.6911 260.5,35.5C 262.677,31.0484 266.344,29.3817 271.5,30.5 Z"/></g>
<g><path style="opacity:1" fill="#cfa273" d="M 223.5,30.5 C 225.5,30.5 227.5,30.5 229.5,30.5C 229.833,34.8333 227.833,36.8333 223.5,36.5C 223.5,34.8333 223.5,33.1667 223.5,31.5C 223.5,31.1667 223.5,30.8333 223.5,30.5 Z"/></g>
<g><path style="opacity:1" fill="#c39669" d="M 111.5,23.5 C 118.71,24.3862 125.71,26.0529 132.5,28.5C 134.76,29.1389 136.76,30.3055 138.5,32C 142.78,36.1092 146.78,40.2758 150.5,44.5C 146.802,44.4476 143.135,44.1143 139.5,43.5C 138.493,42.1716 137.16,41.1716 135.5,40.5C 131.669,39.9728 128.002,39.3061 124.5,38.5C 128.514,38.6655 132.514,38.4988 136.5,38C 135.773,36.6012 135.273,35.1012 135,33.5C 131.476,30.7713 127.643,28.6046 123.5,27C 119.291,26.1194 115.291,24.9527 111.5,23.5 Z"/></g>
<g><path style="opacity:1" fill="#c7b297" d="M 223.5,27.5 C 226.546,28.062 229.546,28.7287 232.5,29.5C 231.576,34.7548 228.576,38.0882 223.5,39.5C 220.941,36.7565 220.941,34.0898 223.5,31.5C 223.5,33.1667 223.5,34.8333 223.5,36.5C 227.833,36.8333 229.833,34.8333 229.5,30.5C 227.5,30.5 225.5,30.5 223.5,30.5C 223.5,29.5 223.5,28.5 223.5,27.5 Z"/></g>
<g><path style="opacity:1" fill="#e2f0e7" d="M 232.5,29.5 C 236.833,30.1667 241.167,30.8333 245.5,31.5C 248.272,32.707 250.938,34.207 253.5,36C 255.929,36.7033 258.262,36.5366 260.5,35.5C 264.262,35.6911 267.929,36.3578 271.5,37.5C 266.349,37.8398 262.015,40.0065 258.5,44C 252.103,44.1815 245.77,44.8482 239.5,46C 236.115,46.881 234.448,49.0477 234.5,52.5C 230.351,51.9197 226.684,52.5864 223.5,54.5C 221.167,54.5 218.833,54.5 216.5,54.5C 214.901,54.7678 213.568,54.4345 212.5,53.5C 214.199,53.6602 215.866,53.4935 217.5,53C 214.929,52.0991 212.596,50.7658 210.5,49C 212.792,47.7101 214.792,46.0435 216.5,44C 221.179,43.5086 223.512,45.6753 223.5,50.5C 226.187,50.6641 228.854,50.4974 231.5,50C 232.284,45.5576 234.95,43.7242 239.5,44.5C 239.5,43.1667 239.5,41.8333 239.5,40.5C 237.009,40.1605 234.842,39.1605 233,37.5C 230.464,38.0386 228.13,39.0386 226,40.5C 224.93,40.472 224.097,40.1386 223.5,39.5C 228.576,38.0882 231.576,34.7548 232.5,29.5 Z"/></g>
<g><path style="opacity:1" fill="#e4bd96" d="M 320.5,50.5 C 318.81,50.1436 317.81,49.1436 317.5,47.5C 321.731,17.2322 308.731,4.73219 278.5,10C 274.101,11.3012 270.101,13.1345 266.5,15.5C 268.86,13.1468 271.527,11.1468 274.5,9.5C 286.73,7.59742 298.73,8.43076 310.5,12C 314.383,16.9409 317.883,22.1076 321,27.5C 321.798,35.246 321.631,42.9127 320.5,50.5 Z"/></g>
<g><path style="opacity:1" fill="#b58f6c" d="M 62.5,30.5 C 61.2749,31.1522 60.6083,32.3189 60.5,34C 60.6667,35.1667 60.8333,36.3333 61,37.5C 62.4381,36.0997 63.2714,34.433 63.5,32.5C 78.67,39.8057 94.67,44.4724 111.5,46.5C 123.26,49.4335 135.26,51.7668 147.5,53.5C 153.004,54.269 158.338,55.269 163.5,56.5C 162.761,56.369 162.094,56.5357 161.5,57C 164.691,59.4262 168.025,61.5928 171.5,63.5C 176.263,66.4124 180.929,69.5791 185.5,73C 197.119,72.0333 208.786,71.1999 220.5,70.5C 221.167,68.5 221.833,66.5 222.5,64.5C 221.5,64.5 220.5,64.5 219.5,64.5C 219.5,64.1667 219.5,63.8333 219.5,63.5C 220.5,63.5 221.5,63.5 222.5,63.5C 229.418,64.8273 236.418,65.6606 243.5,66C 264.164,66.5 284.831,66.6666 305.5,66.5C 307.5,66.5 309.5,66.5 311.5,66.5C 311.5,67.8333 310.833,68.5 309.5,68.5C 286.167,68.5 262.833,68.5 239.5,68.5C 234.684,67.3503 229.684,67.1837 224.5,68C 223.939,69.676 222.939,71.0094 221.5,72C 214.34,72.0101 207.34,73.0101 200.5,75C 194.843,75.4994 189.176,75.6661 183.5,75.5C 174.944,69.744 166.611,63.9106 158.5,58C 140.356,53.9372 122.022,50.6039 103.5,48C 94.7262,44.9807 85.7262,42.814 76.5,41.5C 76.825,49.0191 76.4916,56.3524 75.5,63.5C 75.5,56.8333 75.5,50.1667 75.5,43.5C 74.209,43.2627 73.209,43.596 72.5,44.5C 72.5,48.1667 72.5,51.8333 72.5,55.5C 71.2701,68.3166 70.6034,81.3166 70.5,94.5C 69.507,86.0161 69.1736,77.3494 69.5,68.5C 70.0966,59.4992 70.7633,50.4992 71.5,41.5C 70.7756,38.4513 68.7756,36.7847 65.5,36.5C 64.2404,38.3529 64.2404,40.1862 65.5,42C 64.4366,43.1882 63.1033,43.6882 61.5,43.5C 61.5,46.5 61.5,49.5 61.5,52.5C 61.3334,66.504 61.5001,80.504 62,94.5C 64.2417,96.3271 66.575,97.9938 69,99.5C 70.5924,105.476 70.9257,111.476 70,117.5C 71.3024,118.085 72.469,118.751 73.5,119.5C 71.8333,119.5 70.1667,119.5 68.5,119.5C 68.8214,113.974 68.4881,108.64 67.5,103.5C 65.0184,100.571 62.5184,97.5707 60,94.5C 59.1669,72.4924 59.3336,50.4924 60.5,28.5C 61.5223,28.8555 62.189,29.5222 62.5,30.5 Z"/></g>
<g><path style="opacity:1" fill="#c7915a" d="M 69.5,68.5 C 64.7436,64.2424 62.077,58.909 61.5,52.5C 61.5,49.5 61.5,46.5 61.5,43.5C 63.1033,43.6882 64.4366,43.1882 65.5,42C 64.2404,40.1862 64.2404,38.3529 65.5,36.5C 68.7756,36.7847 70.7756,38.4513 71.5,41.5C 70.7633,50.4992 70.0966,59.4992 69.5,68.5 Z"/></g>
<g><path style="opacity:1" fill="#c8915c" d="M 183.5,75.5 C 179.723,75.443 176.389,76.6097 173.5,79C 159.617,81.6764 145.617,83.843 131.5,85.5C 123.832,85.0221 116.165,84.5221 108.5,84C 99.4465,81.5361 90.2798,79.7027 81,78.5C 78.9046,77.6564 76.9046,76.6564 75,75.5C 73.9261,78.5 73.0928,81.5 72.5,84.5C 72.6865,79.1554 73.0199,73.8221 73.5,68.5C 74.1667,66.8333 74.8333,65.1667 75.5,63.5C 76.4916,56.3524 76.825,49.0191 76.5,41.5C 85.7262,42.814 94.7262,44.9807 103.5,48C 122.022,50.6039 140.356,53.9372 158.5,58C 166.611,63.9106 174.944,69.744 183.5,75.5 Z"/></g>
<g><path style="opacity:1" fill="#b6c8ca" d="M 172.5,48.5 C 177.511,48.6122 182.511,48.9455 187.5,49.5C 189.952,49.5391 191.952,50.2057 193.5,51.5C 186.264,51.2354 179.264,50.2354 172.5,48.5 Z"/></g>
<g><path style="opacity:1" fill="#230901" d="M 72.5,44.5 C 73.8048,46.3972 74.4714,48.7305 74.5,51.5C 74.0832,56.4991 73.7499,61.4991 73.5,66.5C 72.5184,63.0381 72.185,59.3714 72.5,55.5C 72.5,51.8333 72.5,48.1667 72.5,44.5 Z"/></g>
<g><path style="opacity:1" fill="#a6b5b7" d="M 195.5,51.5 C 200.414,51.3618 205.081,52.0285 209.5,53.5C 204.566,53.7709 199.9,53.1042 195.5,51.5 Z"/></g>
<g><path style="opacity:0.161" fill="#9b9e9f" d="M 328.5,50.5 C 330.026,51.4919 330.693,52.9919 330.5,55C 330.259,58.062 329.592,60.8954 328.5,63.5C 329.32,59.1153 329.32,54.7819 328.5,50.5 Z"/></g>
<g><path style="opacity:1" fill="#8d6d56" d="M 216.5,54.5 C 218.833,54.5 221.167,54.5 223.5,54.5C 235.205,54.8616 246.871,55.6949 258.5,57C 273.496,57.4999 288.496,57.6666 303.5,57.5C 275.927,59.1793 248.26,58.5127 220.5,55.5C 218.901,55.7678 217.568,55.4345 216.5,54.5 Z"/></g>
<g><path style="opacity:1" fill="#c89b70" d="M 271.5,30.5 C 279.672,28.505 282.506,31.505 280,39.5C 274.493,39.7117 268.993,40.2117 263.5,41C 261.438,42.5325 260.104,44.5325 259.5,47C 258.552,47.4828 257.552,47.6495 256.5,47.5C 256.5,48.8333 256.5,50.1667 256.5,51.5C 252.084,50.9184 247.751,49.9184 243.5,48.5C 242.167,48.6667 240.833,48.8333 239.5,49C 238.624,50.586 237.624,52.086 236.5,53.5C 259.464,55.4126 282.464,55.9126 305.5,55C 308.557,54.7435 311.557,54.2435 314.5,53.5C 315.208,51.2549 316.208,49.2549 317.5,47.5C 317.81,49.1436 318.81,50.1436 320.5,50.5C 320.631,51.3764 320.298,52.0431 319.5,52.5C 317.105,51.4775 316.105,52.4775 316.5,55.5C 317.833,55.5 319.167,55.5 320.5,55.5C 315.04,56.7373 309.373,57.404 303.5,57.5C 288.496,57.6666 273.496,57.4999 258.5,57C 246.871,55.6949 235.205,54.8616 223.5,54.5C 226.684,52.5864 230.351,51.9197 234.5,52.5C 234.448,49.0477 236.115,46.881 239.5,46C 245.77,44.8482 252.103,44.1815 258.5,44C 262.015,40.0065 266.349,37.8398 271.5,37.5C 273.806,37.9926 276.139,38.3259 278.5,38.5C 278.66,36.8008 278.494,35.1341 278,33.5C 275.585,32.8681 273.418,31.8681 271.5,30.5 Z"/></g>
<g><path style="opacity:1" fill="#8c674d" d="M 72.5,44.5 C 73.209,43.596 74.209,43.2627 75.5,43.5C 75.5,50.1667 75.5,56.8333 75.5,63.5C 74.8333,65.1667 74.1667,66.8333 73.5,68.5C 73.5,67.8333 73.5,67.1667 73.5,66.5C 73.7499,61.4991 74.0832,56.4991 74.5,51.5C 74.4714,48.7305 73.8048,46.3972 72.5,44.5 Z"/></g>
<g><path style="opacity:1" fill="#9a806b" d="M 318.5,74.5 C 319.092,71.8728 319.425,69.2062 319.5,66.5C 316.995,65.5033 314.328,65.5033 311.5,66.5C 309.5,66.5 307.5,66.5 305.5,66.5C 310.219,65.6283 315.052,64.6283 320,63.5C 320.833,63.8333 321.667,64.1667 322.5,64.5C 321.287,67.9968 319.954,71.3301 318.5,74.5 Z"/></g>
<g><path style="opacity:1" fill="#ececdb" d="M 171.5,63.5 C 173.199,63.3398 174.866,63.5065 176.5,64C 179.833,66.3333 183.167,68.6667 186.5,71C 188.5,71.1667 190.5,71.3333 192.5,71.5C 200.321,69.947 208.321,69.1137 216.5,69C 218.141,67.871 219.141,66.371 219.5,64.5C 220.5,64.5 221.5,64.5 222.5,64.5C 221.833,66.5 221.167,68.5 220.5,70.5C 208.786,71.1999 197.119,72.0333 185.5,73C 180.929,69.5791 176.263,66.4124 171.5,63.5 Z"/></g>
<g><path style="opacity:1" fill="#ddf6f5" d="M 171.5,57.5 C 187.482,59.7203 203.482,61.7203 219.5,63.5C 219.5,63.8333 219.5,64.1667 219.5,64.5C 219.141,66.371 218.141,67.871 216.5,69C 208.321,69.1137 200.321,69.947 192.5,71.5C 190.5,71.3333 188.5,71.1667 186.5,71C 183.167,68.6667 179.833,66.3333 176.5,64C 174.866,63.5065 173.199,63.3398 171.5,63.5C 171.528,61.4176 170.861,59.5843 169.5,58C 170.094,57.5357 170.761,57.369 171.5,57.5 Z"/></g>
<g><path style="opacity:1" fill="#4d2b14" d="M 72.5,55.5 C 72.185,59.3714 72.5184,63.0381 73.5,66.5C 73.5,67.1667 73.5,67.8333 73.5,68.5C 73.0199,73.8221 72.6865,79.1554 72.5,84.5C 72.6641,87.1873 72.4974,89.854 72,92.5C 71.8413,94.3427 71.3413,95.0093 70.5,94.5C 70.6034,81.3166 71.2701,68.3166 72.5,55.5 Z"/></g>
<g><path style="opacity:1" fill="#c89f7a" d="M 319.5,66.5 C 319.425,69.2062 319.092,71.8728 318.5,74.5C 313.02,92.7315 306.853,110.732 300,128.5C 298.887,129.305 297.721,129.972 296.5,130.5C 298.307,128.457 299.307,125.957 299.5,123C 299.419,121.076 299.086,119.243 298.5,117.5C 299.768,114.731 301.601,112.397 304,110.5C 309.859,96.718 314.026,82.3846 316.5,67.5C 317.417,66.8728 318.417,66.5394 319.5,66.5 Z"/></g>
<g><path style="opacity:1" fill="#db9f66" d="M 61.5,52.5 C 62.077,58.909 64.7436,64.2424 69.5,68.5C 69.1736,77.3494 69.507,86.0161 70.5,94.5C 71.3413,95.0093 71.8413,94.3427 72,92.5C 72.4974,89.854 72.6641,87.1873 72.5,84.5C 73.0928,81.5 73.9261,78.5 75,75.5C 76.9046,76.6564 78.9046,77.6564 81,78.5C 90.2798,79.7027 99.4465,81.5361 108.5,84C 116.165,84.5221 123.832,85.0221 131.5,85.5C 145.617,83.843 159.617,81.6764 173.5,79C 176.389,76.6097 179.723,75.443 183.5,75.5C 189.176,75.6661 194.843,75.4994 200.5,75C 207.34,73.0101 214.34,72.0101 221.5,72C 222.939,71.0094 223.939,69.676 224.5,68C 229.684,67.1837 234.684,67.3503 239.5,68.5C 261.994,69.4975 284.661,69.8308 307.5,69.5C 307.756,71.9124 306.756,73.5791 304.5,74.5C 304.573,79.4985 302.74,83.4985 299,86.5C 298.685,94.7107 296.518,102.377 292.5,109.5C 293.875,112.373 294.875,115.373 295.5,118.5C 294.252,120.459 292.585,121.959 290.5,123C 291.772,125.044 291.439,126.878 289.5,128.5C 286.562,127.425 283.562,127.259 280.5,128C 278.612,130.19 276.445,132.023 274,133.5C 273.667,134.5 273.333,135.5 273,136.5C 272.667,136.167 272.333,135.833 272,135.5C 273.038,139.846 273.871,144.346 274.5,149C 274.031,151.196 273.031,153.029 271.5,154.5C 271.5,155.5 271.5,156.5 271.5,157.5C 268.255,157.707 266.255,156.207 265.5,153C 259.435,150.588 253.102,149.921 246.5,151C 243.36,151.991 241.026,153.824 239.5,156.5C 236.728,156.405 234.728,155.071 233.5,152.5C 229.394,150.042 224.894,149.042 220,149.5C 216.748,149.519 213.915,150.186 211.5,151.5C 207.161,153.648 202.494,154.648 197.5,154.5C 196.226,149.331 192.893,146.165 187.5,145C 179.369,144.063 171.369,144.563 163.5,146.5C 159.67,145.349 156.67,143.016 154.5,139.5C 148.898,137.235 143.064,135.902 137,135.5C 134.889,135.701 133.055,136.367 131.5,137.5C 129.28,138.979 126.946,140.312 124.5,141.5C 123.244,141.904 122.077,142.571 121,143.5C 118.685,141.531 116.851,139.197 115.5,136.5C 113.86,134.831 112.526,132.831 111.5,130.5C 102.398,127.941 93.0642,126.774 83.5,127C 81.2915,126.064 79.9582,124.398 79.5,122C 77.6547,120.872 75.6547,120.372 73.5,120.5C 73.5,120.167 73.5,119.833 73.5,119.5C 72.469,118.751 71.3024,118.085 70,117.5C 70.9257,111.476 70.5924,105.476 69,99.5C 66.575,97.9938 64.2417,96.3271 62,94.5C 61.5001,80.504 61.3334,66.504 61.5,52.5 Z"/></g>
<g><path style="opacity:0.192" fill="#bababa" d="M 324.5,79.5 C 324.405,81.7857 323.738,83.7857 322.5,85.5C 322.259,83.1016 322.926,81.1016 324.5,79.5 Z"/></g>
<g><path style="opacity:1" fill="#e4bd99" d="M 319.5,66.5 C 318.417,66.5394 317.417,66.8728 316.5,67.5C 314.026,82.3846 309.859,96.718 304,110.5C 301.601,112.397 299.768,114.731 298.5,117.5C 297.883,117.389 297.383,117.056 297,116.5C 296.333,113.5 296.333,110.5 297,107.5C 300.744,94.1311 304.911,81.1311 309.5,68.5C 310.833,68.5 311.5,67.8333 311.5,66.5C 314.328,65.5033 316.995,65.5033 319.5,66.5 Z"/></g>
<g><path style="opacity:0.035" fill="#d1d1d1" d="M 322.5,85.5 C 322.741,87.8984 322.074,89.8984 320.5,91.5C 320.595,89.2143 321.262,87.2143 322.5,85.5 Z"/></g>
<g><path style="opacity:0.459" fill="#858c8e" d="M 52.5,96.5 C 55.7852,99.1185 58.7852,102.118 61.5,105.5C 57.5216,103.522 54.5216,100.522 52.5,96.5 Z"/></g>
<g><path style="opacity:0.008" fill="#d6d5d5" d="M 319.5,94.5 C 319.59,97.1522 318.924,99.4855 317.5,101.5C 317.41,98.8478 318.076,96.5145 319.5,94.5 Z"/></g>
<g><path style="opacity:0.104" fill="#dbdbdd" d="M 61.5,105.5 C 62.1174,105.611 62.6174,105.944 63,106.5C 63.4994,112.157 63.6661,117.824 63.5,123.5C 62.7524,117.634 62.0857,111.634 61.5,105.5 Z"/></g>
<g><path style="opacity:1" fill="#947561" d="M 67.5,103.5 C 68.4881,108.64 68.8214,113.974 68.5,119.5C 70.1667,119.5 71.8333,119.5 73.5,119.5C 73.5,119.833 73.5,120.167 73.5,120.5C 71.5,120.5 69.5,120.5 67.5,120.5C 67.5,114.833 67.5,109.167 67.5,103.5 Z"/></g>
<g><path style="opacity:0.133" fill="#b8bfc3" d="M 312.5,115.5 C 312.267,118.542 311.267,121.208 309.5,123.5C 309.733,120.458 310.733,117.792 312.5,115.5 Z"/></g>
<g><path style="opacity:0.153" fill="#a6a8ac" d="M 309.5,123.5 C 309.598,125.553 308.931,127.22 307.5,128.5C 307.402,126.447 308.069,124.78 309.5,123.5 Z"/></g>
<g><path style="opacity:1" fill="#c09671" d="M 73.5,120.5 C 75.6547,120.372 77.6547,120.872 79.5,122C 79.9582,124.398 81.2915,126.064 83.5,127C 93.0642,126.774 102.398,127.941 111.5,130.5C 112.526,132.831 113.86,134.831 115.5,136.5C 110.86,133.338 105.86,130.838 100.5,129C 94.6056,127.745 89.2723,128.911 84.5,132.5C 81.72,127.543 78.0533,123.543 73.5,120.5 Z"/></g>
<g><path style="opacity:1" fill="#1d110d" d="M 67.5,120.5 C 69.5,120.5 71.5,120.5 73.5,120.5C 78.0533,123.543 81.72,127.543 84.5,132.5C 89.2723,128.911 94.6056,127.745 100.5,129C 105.86,130.838 110.86,133.338 115.5,136.5C 116.851,139.197 118.685,141.531 121,143.5C 122.077,142.571 123.244,141.904 124.5,141.5C 125.833,141.5 126.5,142.167 126.5,143.5C 125.391,144.29 124.058,144.79 122.5,145C 121.748,145.671 121.414,146.504 121.5,147.5C 120.21,148.058 119.377,149.058 119,150.5C 118.502,153.482 118.335,156.482 118.5,159.5C 117.566,158.432 117.232,157.099 117.5,155.5C 118.174,146.5 114.508,140.167 106.5,136.5C 104.898,134.926 102.898,134.259 100.5,134.5C 97.0242,133.357 93.3575,133.19 89.5,134C 87.4234,135.705 85.09,136.872 82.5,137.5C 81.8333,137.5 81.1667,137.5 80.5,137.5C 80.1667,137.5 79.8333,137.5 79.5,137.5C 79.9608,132.188 77.9608,128.188 73.5,125.5C 72.4324,124.566 71.099,124.232 69.5,124.5C 70.6085,123.71 71.9419,123.21 73.5,123C 71.2774,122.434 69.2774,121.6 67.5,120.5 Z"/></g>
<g><path style="opacity:0.086" fill="#9a9a9a" d="M 307.5,128.5 C 307.771,130.38 307.104,131.713 305.5,132.5C 305.66,130.847 306.326,129.514 307.5,128.5 Z"/></g>
<g><path style="opacity:1" fill="#f4eee7" d="M 73.5,125.5 C 77.9608,128.188 79.9608,132.188 79.5,137.5C 79.5,138.5 79.5,139.5 79.5,140.5C 78.5,140.5 77.5,140.5 76.5,140.5C 76.067,137.834 75.567,135.168 75,132.5C 74.6174,131.944 74.1174,131.611 73.5,131.5C 70.9558,130.292 69.6225,128.292 69.5,125.5C 70.8333,125.5 72.1667,125.5 73.5,125.5 Z"/></g>
<g><path style="opacity:1" fill="#e9cfb4" d="M 73.5,131.5 C 74.1174,131.611 74.6174,131.944 75,132.5C 75.567,135.168 76.067,137.834 76.5,140.5C 77.5,140.5 78.5,140.5 79.5,140.5C 79.5,139.5 79.5,138.5 79.5,137.5C 79.8333,137.5 80.1667,137.5 80.5,137.5C 80.5,138.833 80.5,140.167 80.5,141.5C 78.4727,141.662 76.4727,141.495 74.5,141C 73.6634,139.989 73.33,138.822 73.5,137.5C 73.5,135.5 73.5,133.5 73.5,131.5 Z"/></g>
<g><path style="opacity:1" fill="#906d51" d="M 100.5,134.5 C 94.2589,133.845 88.7589,135.512 84,139.5C 83.5004,146.158 83.3337,152.825 83.5,159.5C 82.5151,155.366 82.1818,151.032 82.5,146.5C 82.5,143.5 82.5,140.5 82.5,137.5C 85.09,136.872 87.4234,135.705 89.5,134C 93.3575,133.19 97.0242,133.357 100.5,134.5 Z"/></g>
<g><path style="opacity:0.953" fill="#3d3e41" d="M 301.5,135.5 C 299.833,137.833 297.833,139.833 295.5,141.5C 294.972,140.153 294.805,138.819 295,137.5C 296.911,135.311 299.077,134.644 301.5,135.5 Z"/></g>
<g><path style="opacity:1" fill="#d7a16f" d="M 239.5,68.5 C 262.833,68.5 286.167,68.5 309.5,68.5C 304.911,81.1311 300.744,94.1311 297,107.5C 296.333,110.5 296.333,113.5 297,116.5C 297.383,117.056 297.883,117.389 298.5,117.5C 299.086,119.243 299.419,121.076 299.5,123C 299.307,125.957 298.307,128.457 296.5,130.5C 293.979,132.701 291.479,135.034 289,137.5C 288.434,139.723 287.6,141.723 286.5,143.5C 283.142,144.527 281.475,146.86 281.5,150.5C 280.307,150.03 279.64,149.03 279.5,147.5C 279.896,141.374 282.396,136.374 287,132.5C 287.49,131.207 287.657,129.873 287.5,128.5C 286.127,128.343 284.793,128.51 283.5,129C 281.983,130.685 280.316,132.185 278.5,133.5C 277.044,139.79 276.044,146.123 275.5,152.5C 274.167,153.167 272.833,153.833 271.5,154.5C 273.031,153.029 274.031,151.196 274.5,149C 273.871,144.346 273.038,139.846 272,135.5C 272.333,135.833 272.667,136.167 273,136.5C 273.333,135.5 273.667,134.5 274,133.5C 276.445,132.023 278.612,130.19 280.5,128C 283.562,127.259 286.562,127.425 289.5,128.5C 291.439,126.878 291.772,125.044 290.5,123C 292.585,121.959 294.252,120.459 295.5,118.5C 294.875,115.373 293.875,112.373 292.5,109.5C 296.518,102.377 298.685,94.7107 299,86.5C 302.74,83.4985 304.573,79.4985 304.5,74.5C 306.756,73.5791 307.756,71.9124 307.5,69.5C 284.661,69.8308 261.994,69.4975 239.5,68.5 Z"/></g>
<g><path style="opacity:1" fill="#db9f67" d="M 102.5,138.5 C 104.981,142.111 107.481,145.778 110,149.5C 110.333,151.5 110.667,153.5 111,155.5C 111.414,155.957 111.914,156.291 112.5,156.5C 112.951,178.819 112.951,201.152 112.5,223.5C 111.104,230.287 109.604,237.287 108,244.5C 107.692,252.181 107.192,259.848 106.5,267.5C 107.592,280.818 107.759,294.151 107,307.5C 106,308.5 105,309.5 104,310.5C 98.7002,309.298 93.5335,307.964 88.5,306.5C 86.744,305.448 86.0773,303.781 86.5,301.5C 87.494,291.681 87.8274,281.681 87.5,271.5C 87.5,260.833 87.5,250.167 87.5,239.5C 88.4443,218.174 88.611,196.84 88,175.5C 87.7193,164.191 86.5526,153.024 84.5,142C 90.3041,140.971 96.3041,139.804 102.5,138.5 Z"/></g>
<g><path style="opacity:1" fill="#3e281c" d="M 131.5,137.5 C 135.702,137.183 139.702,137.517 143.5,138.5C 138.187,137.932 133.187,138.765 128.5,141C 132.651,140.461 136.651,140.628 140.5,141.5C 135.703,141.523 131.036,142.189 126.5,143.5C 126.5,142.167 125.833,141.5 124.5,141.5C 126.946,140.312 129.28,138.979 131.5,137.5 Z"/></g>
<g><path style="opacity:1" fill="#4f2d16" d="M 80.5,137.5 C 81.1667,137.5 81.8333,137.5 82.5,137.5C 82.5,140.5 82.5,143.5 82.5,146.5C 81.5088,153.313 81.1755,160.313 81.5,167.5C 81.1667,167.5 80.8333,167.5 80.5,167.5C 80.5,158.833 80.5,150.167 80.5,141.5C 80.5,140.167 80.5,138.833 80.5,137.5 Z"/></g>
<g><path style="opacity:1" fill="#e8bb8f" d="M 281.5,150.5 C 280.571,151.315 279.571,152.148 278.5,153C 277.251,153.74 276.251,153.573 275.5,152.5C 276.044,146.123 277.044,139.79 278.5,133.5C 280.316,132.185 281.983,130.685 283.5,129C 284.793,128.51 286.127,128.343 287.5,128.5C 287.657,129.873 287.49,131.207 287,132.5C 282.396,136.374 279.896,141.374 279.5,147.5C 279.64,149.03 280.307,150.03 281.5,150.5 Z"/></g>
<g><path style="opacity:1" fill="#cda178" d="M 105.5,136.5 C 105.077,137.265 104.743,138.098 104.5,139C 110.636,142.695 113.803,148.195 114,155.5C 114.671,156.252 115.504,156.586 116.5,156.5C 116.5,156.833 116.5,157.167 116.5,157.5C 114.559,173.133 113.559,189.133 113.5,205.5C 113.823,211.69 113.49,217.69 112.5,223.5C 112.951,201.152 112.951,178.819 112.5,156.5C 111.914,156.291 111.414,155.957 111,155.5C 110.667,153.5 110.333,151.5 110,149.5C 107.481,145.778 104.981,142.111 102.5,138.5C 103.222,137.449 104.222,136.782 105.5,136.5 Z"/></g>
<g><path style="opacity:0.137" fill="#b6b6b7" d="M 295.5,141.5 C 295.02,144.443 294.02,147.11 292.5,149.5C 292.415,146.351 293.415,143.684 295.5,141.5 Z"/></g>
<g><path style="opacity:1" fill="#db9f67" d="M 142.5,143.5 C 142.338,145.527 142.505,147.527 143,149.5C 145.643,150.976 147.81,152.976 149.5,155.5C 152.457,159.687 154.457,164.354 155.5,169.5C 155.444,170.737 154.944,171.737 154,172.5C 153.729,186.874 152.896,201.208 151.5,215.5C 151.806,218.385 151.473,221.052 150.5,223.5C 147.786,231.056 146.786,239.056 147.5,247.5C 147.058,251.154 146.724,254.821 146.5,258.5C 144.946,262.567 144.28,266.9 144.5,271.5C 142.67,274.944 141.004,278.611 139.5,282.5C 139.779,284.343 140.113,286.177 140.5,288C 138.991,291.695 137.991,295.528 137.5,299.5C 138.456,305.82 138.456,312.153 137.5,318.5C 128.482,317.099 119.482,315.766 110.5,314.5C 110.347,308.131 110.68,301.797 111.5,295.5C 111.966,289.509 112.299,283.509 112.5,277.5C 112.616,274.14 112.949,270.807 113.5,267.5C 115.423,263.971 116.089,259.971 115.5,255.5C 116.406,243.246 117.906,230.913 120,218.5C 120.296,195.801 121.296,173.134 123,150.5C 125.928,149.24 127.761,147.073 128.5,144C 133.155,143.501 137.821,143.334 142.5,143.5 Z"/></g>
<g><path style="opacity:1" fill="#bb926f" d="M 197.5,154.5 C 186.899,143.939 175.066,142.605 162,150.5C 157.026,144.698 150.859,140.698 143.5,138.5C 139.702,137.517 135.702,137.183 131.5,137.5C 133.055,136.367 134.889,135.701 137,135.5C 143.064,135.902 148.898,137.235 154.5,139.5C 156.67,143.016 159.67,145.349 163.5,146.5C 171.369,144.563 179.369,144.063 187.5,145C 192.893,146.165 196.226,149.331 197.5,154.5 Z"/></g>
<g><path style="opacity:0.149" fill="#989a9d" d="M 64.5,141.5 C 67.5694,160.913 69.5694,180.58 70.5,200.5C 68.052,181.023 66.052,161.356 64.5,141.5 Z"/></g>
<g><path style="opacity:1" fill="#ece4d3" d="M 105.5,136.5 C 105.833,136.5 106.167,136.5 106.5,136.5C 114.508,140.167 118.174,146.5 117.5,155.5C 116.833,155.5 116.5,155.833 116.5,156.5C 115.504,156.586 114.671,156.252 114,155.5C 113.803,148.195 110.636,142.695 104.5,139C 104.743,138.098 105.077,137.265 105.5,136.5 Z"/></g>
<g><path style="opacity:1" fill="#f6efe3" d="M 146.5,143.5 C 152.897,146.231 157.23,150.897 159.5,157.5C 159.5,159.5 159.5,161.5 159.5,163.5C 158.178,163.67 157.011,163.337 156,162.5C 154.645,155.811 150.979,150.811 145,147.5C 144.156,145.537 144.656,144.204 146.5,143.5 Z"/></g>
<g><path style="opacity:1" fill="#bc9673" d="M 239.5,156.5 C 239.585,157.995 238.919,158.995 237.5,159.5C 235.96,157.613 234.293,155.78 232.5,154C 225.655,151.922 218.655,151.089 211.5,151.5C 213.915,150.186 216.748,149.519 220,149.5C 224.894,149.042 229.394,150.042 233.5,152.5C 234.728,155.071 236.728,156.405 239.5,156.5 Z"/></g>
<g><path style="opacity:0.196" fill="#a1a1a1" d="M 292.5,149.5 C 292.405,151.786 291.738,153.786 290.5,155.5C 290.259,153.102 290.926,151.102 292.5,149.5 Z"/></g>
<g><path style="opacity:1" fill="#f0eae0" d="M 181.5,151.5 C 182.209,150.596 183.209,150.263 184.5,150.5C 185.922,150.709 187.255,151.209 188.5,152C 191.203,155.038 194.203,157.705 197.5,160C 198.38,161.356 198.714,162.856 198.5,164.5C 197.715,166.374 197.048,168.374 196.5,170.5C 194.954,167.23 193.12,163.896 191,160.5C 186.924,158.256 183.757,155.256 181.5,151.5 Z"/></g>
<g><path style="opacity:1" fill="#c49b79" d="M 286.5,143.5 C 285.937,147.125 284.937,150.625 283.5,154C 278.075,155.042 273.075,157.209 268.5,160.5C 267.817,160.137 267.15,159.804 266.5,159.5C 266.586,158.504 266.252,157.671 265.5,157C 262.148,154.467 258.481,152.634 254.5,151.5C 249.103,152.188 244.103,153.855 239.5,156.5C 241.026,153.824 243.36,151.991 246.5,151C 253.102,149.921 259.435,150.588 265.5,153C 266.255,156.207 268.255,157.707 271.5,157.5C 271.5,156.5 271.5,155.5 271.5,154.5C 272.833,153.833 274.167,153.167 275.5,152.5C 276.251,153.573 277.251,153.74 278.5,153C 279.571,152.148 280.571,151.315 281.5,150.5C 281.475,146.86 283.142,144.527 286.5,143.5 Z"/></g>
<g><path style="opacity:1" fill="#cda27a" d="M 143.5,142.5 C 144.791,142.263 145.791,142.596 146.5,143.5C 144.656,144.204 144.156,145.537 145,147.5C 150.979,150.811 154.645,155.811 156,162.5C 157.011,163.337 158.178,163.67 159.5,163.5C 156.962,180.911 154.295,198.245 151.5,215.5C 152.896,201.208 153.729,186.874 154,172.5C 154.944,171.737 155.444,170.737 155.5,169.5C 154.457,164.354 152.457,159.687 149.5,155.5C 147.81,152.976 145.643,150.976 143,149.5C 142.505,147.527 142.338,145.527 142.5,143.5C 143.167,143.5 143.5,143.167 143.5,142.5 Z"/></g>
<g><path style="opacity:1" fill="#dc9f66" d="M 181.5,152.5 C 181.608,154.783 182.441,156.783 184,158.5C 186.667,161.167 189.333,163.833 192,166.5C 194.318,171.494 193.984,176.161 191,180.5C 191.154,187.188 189.821,193.522 187,199.5C 185.761,207.519 184.595,215.519 183.5,223.5C 181.238,231.886 178.405,240.219 175,248.5C 174.824,251.882 174.324,255.215 173.5,258.5C 172.481,257.313 171.314,256.313 170,255.5C 170.192,260.799 170.359,266.133 170.5,271.5C 168.856,271.714 167.356,271.38 166,270.5C 165.83,268.285 165.163,266.285 164,264.5C 163.125,265.873 162.625,267.373 162.5,269C 167.563,275.385 168.73,282.552 166,290.5C 165.282,287.766 163.782,287.1 161.5,288.5C 165.222,299.737 164.555,310.737 159.5,321.5C 153.951,321.913 148.618,321.08 143.5,319C 145.875,306.628 147.709,294.128 149,281.5C 149.915,280.672 150.581,279.672 151,278.5C 152.009,266.174 152.843,253.84 153.5,241.5C 155.532,233.308 156.698,224.974 157,216.5C 162.801,197.96 165.134,178.96 164,159.5C 165.188,158.437 165.688,157.103 165.5,155.5C 170.133,155.01 174.467,153.676 178.5,151.5C 178.694,155.005 179.694,155.338 181.5,152.5 Z"/></g>
<g><path style="opacity:0.157" fill="#ababab" d="M 290.5,155.5 C 289.602,160.534 287.935,165.201 285.5,169.5C 286.398,164.466 288.065,159.799 290.5,155.5 Z"/></g>
<g><path style="opacity:1" fill="#1b100b" d="M 143.5,138.5 C 150.859,140.698 157.026,144.698 162,150.5C 175.066,142.605 186.899,143.939 197.5,154.5C 198.431,156.022 199.598,157.355 201,158.5C 204.315,155.768 207.815,153.435 211.5,151.5C 218.655,151.089 225.655,151.922 232.5,154C 234.293,155.78 235.96,157.613 237.5,159.5C 238.919,158.995 239.585,157.995 239.5,156.5C 244.103,153.855 249.103,152.188 254.5,151.5C 258.481,152.634 262.148,154.467 265.5,157C 266.252,157.671 266.586,158.504 266.5,159.5C 264.283,158.631 261.95,158.298 259.5,158.5C 258.833,158.167 258.167,157.833 257.5,157.5C 252.4,155.732 247.733,156.732 243.5,160.5C 240.21,163.01 238.21,166.344 237.5,170.5C 236.833,169.167 236.167,167.833 235.5,166.5C 234.861,164.24 233.694,162.24 232,160.5C 230.887,159.695 229.721,159.028 228.5,158.5C 226.152,157.048 223.486,156.382 220.5,156.5C 217.118,156.676 213.785,157.176 210.5,158C 209.058,158.377 208.058,159.21 207.5,160.5C 203.364,160.646 200.697,162.646 199.5,166.5C 198.662,166.158 198.328,165.492 198.5,164.5C 198.714,162.856 198.38,161.356 197.5,160C 194.203,157.705 191.203,155.038 188.5,152C 187.255,151.209 185.922,150.709 184.5,150.5C 177.231,148.649 170.564,149.982 164.5,154.5C 162.827,155.343 161.66,156.676 161,158.5C 160.617,157.944 160.117,157.611 159.5,157.5C 157.23,150.897 152.897,146.231 146.5,143.5C 145.791,142.596 144.791,142.263 143.5,142.5C 142.791,141.596 141.791,141.263 140.5,141.5C 136.651,140.628 132.651,140.461 128.5,141C 133.187,138.765 138.187,137.932 143.5,138.5 Z"/></g>
<g><path style="opacity:1" fill="#bf9d79" d="M 211.5,151.5 C 207.815,153.435 204.315,155.768 201,158.5C 199.598,157.355 198.431,156.022 197.5,154.5C 202.494,154.648 207.161,153.648 211.5,151.5 Z"/></g>
<g><path style="opacity:1" fill="#ba8859" d="M 140.5,141.5 C 141.791,141.263 142.791,141.596 143.5,142.5C 143.5,143.167 143.167,143.5 142.5,143.5C 137.821,143.334 133.155,143.501 128.5,144C 127.761,147.073 125.928,149.24 123,150.5C 121.296,173.134 120.296,195.801 120,218.5C 117.906,230.913 116.406,243.246 115.5,255.5C 115.5,247.5 115.5,239.5 115.5,231.5C 115.5,230.833 115.5,230.167 115.5,229.5C 118.405,202.384 120.405,175.051 121.5,147.5C 121.414,146.504 121.748,145.671 122.5,145C 124.058,144.79 125.391,144.29 126.5,143.5C 131.036,142.189 135.703,141.523 140.5,141.5 Z"/></g>
<g><path style="opacity:1" fill="#a78262" d="M 257.5,157.5 C 255.824,158.183 255.157,159.517 255.5,161.5C 255.158,162.338 254.492,162.672 253.5,162.5C 252.666,161.252 251.333,160.585 249.5,160.5C 248.167,160.833 246.833,161.167 245.5,161.5C 242.11,164.01 239.444,167.01 237.5,170.5C 238.21,166.344 240.21,163.01 243.5,160.5C 247.733,156.732 252.4,155.732 257.5,157.5 Z"/></g>
<g><path style="opacity:1" fill="#a58165" d="M 116.5,157.5 C 116.281,173.702 115.281,189.702 113.5,205.5C 113.559,189.133 114.559,173.133 116.5,157.5 Z"/></g>
<g><path style="opacity:1" fill="#dca067" d="M 225.5,158.5 C 225.151,161.99 226.651,164.323 230,165.5C 230.185,174.2 229.685,182.867 228.5,191.5C 226.395,192.987 224.728,194.987 223.5,197.5C 222.837,200.806 222.337,204.139 222,207.5C 220.182,209.916 218.848,212.582 218,215.5C 217.5,219.5 217,223.5 216.5,227.5C 212.457,239.465 209.123,251.631 206.5,264C 204.976,265.194 203.81,266.694 203,268.5C 200.6,276.605 198.933,284.938 198,293.5C 194.878,297.974 193.711,302.974 194.5,308.5C 194.058,312.154 193.724,315.821 193.5,319.5C 190.798,322.951 187.131,324.284 182.5,323.5C 177.732,323.535 173.398,322.202 169.5,319.5C 169.167,318.667 168.833,317.833 168.5,317C 171.105,304.431 173.605,291.931 176,279.5C 179.483,267.623 182.65,255.623 185.5,243.5C 190.076,235.587 192.576,226.92 193,217.5C 197.045,207.606 199.712,197.273 201,186.5C 202.332,180.337 204.166,174.337 206.5,168.5C 211.44,163.52 217.44,161.52 224.5,162.5C 224.232,160.901 224.566,159.568 225.5,158.5 Z"/></g>
<g><path style="opacity:1" fill="#dba068" d="M 255.5,161.5 C 257.062,161.733 258.395,162.4 259.5,163.5C 260.331,167.476 260.497,171.476 260,175.5C 256.004,188.49 252.171,201.49 248.5,214.5C 248.52,215.726 248.853,216.726 249.5,217.5C 248.422,221.31 247.089,224.977 245.5,228.5C 241.755,234.695 238.755,241.362 236.5,248.5C 234.479,256.882 232.479,265.215 230.5,273.5C 229.167,278.167 227.833,282.833 226.5,287.5C 224.233,292.547 222.566,297.88 221.5,303.5C 218.902,309.195 216.902,315.195 215.5,321.5C 209.87,322.521 204.204,322.687 198.5,322C 196.563,321.878 195.23,321.045 194.5,319.5C 194.328,318.508 194.662,317.842 195.5,317.5C 196.458,320.125 197.624,320.125 199,317.5C 199.413,310.515 201.08,303.849 204,297.5C 204.497,294.854 204.664,292.187 204.5,289.5C 204.5,289.167 204.5,288.833 204.5,288.5C 205.458,288.047 206.292,287.381 207,286.5C 207.545,282.198 208.878,278.198 211,274.5C 212.745,267.645 213.911,260.645 214.5,253.5C 216.258,251.859 217.758,249.859 219,247.5C 222.525,232.071 226.692,216.738 231.5,201.5C 236.234,191.277 240.067,180.61 243,169.5C 245.056,164.935 248.556,162.602 253.5,162.5C 254.492,162.672 255.158,162.338 255.5,161.5 Z"/></g>
<g><path style="opacity:1" fill="#9f7a59" d="M 121.5,147.5 C 120.405,175.051 118.405,202.384 115.5,229.5C 116.5,206.165 117.5,182.831 118.5,159.5C 118.335,156.482 118.502,153.482 119,150.5C 119.377,149.058 120.21,148.058 121.5,147.5 Z"/></g>
<g><path style="opacity:1" fill="#23130a" d="M 82.5,146.5 C 82.1818,151.032 82.5151,155.366 83.5,159.5C 83.5,162.833 83.5,166.167 83.5,169.5C 83.8266,178.682 83.4933,187.682 82.5,196.5C 81.6401,186.861 81.3068,177.194 81.5,167.5C 81.1755,160.313 81.5088,153.313 82.5,146.5 Z"/></g>
<g><path style="opacity:1" fill="#f2e9e0" d="M 257.5,157.5 C 258.167,157.833 258.833,158.167 259.5,158.5C 262.74,160.639 264.74,163.639 265.5,167.5C 265.416,170.327 264.75,172.994 263.5,175.5C 262.834,172.311 262.167,168.977 261.5,165.5C 260.818,164.757 260.151,164.091 259.5,163.5C 258.395,162.4 257.062,161.733 255.5,161.5C 255.157,159.517 255.824,158.183 257.5,157.5 Z"/></g>
<g><path style="opacity:1" fill="#a17e60" d="M 83.5,159.5 C 85.4762,169.781 86.1428,180.448 85.5,191.5C 84.8333,184.167 84.1667,176.833 83.5,169.5C 83.5,166.167 83.5,162.833 83.5,159.5 Z"/></g>
<g><path style="opacity:1" fill="#f1e6d9" d="M 226.5,158.5 C 227.167,158.5 227.833,158.5 228.5,158.5C 229.721,159.028 230.887,159.695 232,160.5C 233.694,162.24 234.861,164.24 235.5,166.5C 235.58,169.781 234.913,172.781 233.5,175.5C 231.74,172.299 230.906,168.633 231,164.5C 230.1,163.23 228.934,162.23 227.5,161.5C 226.873,160.583 226.539,159.583 226.5,158.5 Z"/></g>
<g><path style="opacity:1" fill="#bd8854" d="M 253.5,162.5 C 248.556,162.602 245.056,164.935 243,169.5C 240.067,180.61 236.234,191.277 231.5,201.5C 231.5,200.167 231.5,198.833 231.5,197.5C 233.334,192.613 235.168,187.613 237,182.5C 237.499,178.848 237.665,175.182 237.5,171.5C 237.5,171.167 237.5,170.833 237.5,170.5C 239.444,167.01 242.11,164.01 245.5,161.5C 246.833,161.167 248.167,160.833 249.5,160.5C 251.333,160.585 252.666,161.252 253.5,162.5 Z"/></g>
<g><path style="opacity:1" fill="#cca880" d="M 225.5,158.5 C 225.833,158.5 226.167,158.5 226.5,158.5C 226.539,159.583 226.873,160.583 227.5,161.5C 228.934,162.23 230.1,163.23 231,164.5C 230.906,168.633 231.74,172.299 233.5,175.5C 232.432,181.132 230.765,186.465 228.5,191.5C 229.685,182.867 230.185,174.2 230,165.5C 226.651,164.323 225.151,161.99 225.5,158.5 Z"/></g>
<g><path style="opacity:0.145" fill="#a5a6a8" d="M 283.5,175.5 C 282.935,179.537 281.601,183.203 279.5,186.5C 280.065,182.463 281.399,178.797 283.5,175.5 Z"/></g>
<g><path style="opacity:1" fill="#977154" d="M 237.5,171.5 C 237.665,175.182 237.499,178.848 237,182.5C 235.168,187.613 233.334,192.613 231.5,197.5C 230.687,199.261 229.687,200.928 228.5,202.5C 231.384,192.04 234.384,181.706 237.5,171.5 Z"/></g>
<g><path style="opacity:1" fill="#bb8756" d="M 100.5,134.5 C 102.898,134.259 104.898,134.926 106.5,136.5C 106.167,136.5 105.833,136.5 105.5,136.5C 104.222,136.782 103.222,137.449 102.5,138.5C 96.3041,139.804 90.3041,140.971 84.5,142C 86.5526,153.024 87.7193,164.191 88,175.5C 88.611,196.84 88.4443,218.174 87.5,239.5C 87.1667,239.5 86.8333,239.5 86.5,239.5C 86.7208,230.134 86.3874,220.801 85.5,211.5C 85.5,204.833 85.5,198.167 85.5,191.5C 86.1428,180.448 85.4762,169.781 83.5,159.5C 83.3337,152.825 83.5004,146.158 84,139.5C 88.7589,135.512 94.2589,133.845 100.5,134.5 Z"/></g>
<g><path style="opacity:1" fill="#ca9f77" d="M 181.5,151.5 C 183.757,155.256 186.924,158.256 191,160.5C 193.12,163.896 194.954,167.23 196.5,170.5C 192.69,188.41 188.357,206.077 183.5,223.5C 184.595,215.519 185.761,207.519 187,199.5C 189.821,193.522 191.154,187.188 191,180.5C 193.984,176.161 194.318,171.494 192,166.5C 189.333,163.833 186.667,161.167 184,158.5C 182.441,156.783 181.608,154.783 181.5,152.5C 181.5,152.167 181.5,151.833 181.5,151.5 Z"/></g>
<g><path style="opacity:1" fill="#957057" d="M 160.5,177.5 C 160.386,185.417 159.386,193.084 157.5,200.5C 157.614,192.583 158.614,184.916 160.5,177.5 Z"/></g>
<g><path style="opacity:1" fill="#b3855c" d="M 184.5,150.5 C 183.209,150.263 182.209,150.596 181.5,151.5C 181.5,151.833 181.5,152.167 181.5,152.5C 179.694,155.338 178.694,155.005 178.5,151.5C 174.467,153.676 170.133,155.01 165.5,155.5C 165.688,157.103 165.188,158.437 164,159.5C 165.134,178.96 162.801,197.96 157,216.5C 156.698,224.974 155.532,233.308 153.5,241.5C 152.833,243.5 152.167,245.5 151.5,247.5C 151.5,246.5 151.5,245.5 151.5,244.5C 153.238,229.781 155.238,215.114 157.5,200.5C 159.386,193.084 160.386,185.417 160.5,177.5C 160.171,169.452 161.504,161.785 164.5,154.5C 170.564,149.982 177.231,148.649 184.5,150.5 Z"/></g>
<g><path style="opacity:1" fill="#ac835d" d="M 278.5,166.5 C 276.44,165.189 274.274,165.189 272,166.5C 268.871,178.239 264.871,189.572 260,200.5C 259.503,202.81 259.337,205.143 259.5,207.5C 256.015,211.64 253.682,216.473 252.5,222C 252.164,223.03 251.497,223.53 250.5,223.5C 256.572,205.618 262.239,187.618 267.5,169.5C 270.19,163.1 274.857,160.1 281.5,160.5C 280.481,162.604 279.481,164.604 278.5,166.5 Z"/></g>
<g><path style="opacity:1" fill="#2c1812" d="M 265.5,167.5 C 266.167,168.167 266.833,168.833 267.5,169.5C 262.239,187.618 256.572,205.618 250.5,223.5C 248.368,230.563 246.035,237.563 243.5,244.5C 240.724,250.499 238.724,256.833 237.5,263.5C 234.167,273.167 230.833,282.833 227.5,292.5C 226.637,293.463 225.97,293.463 225.5,292.5C 226.309,290.929 226.643,289.262 226.5,287.5C 227.833,282.833 229.167,278.167 230.5,273.5C 236.253,258.852 241.253,243.852 245.5,228.5C 247.089,224.977 248.422,221.31 249.5,217.5C 254.368,203.563 259.035,189.563 263.5,175.5C 264.75,172.994 265.416,170.327 265.5,167.5 Z"/></g>
<g><path style="opacity:1" fill="#e7d3bb" d="M 259.5,163.5 C 260.151,164.091 260.818,164.757 261.5,165.5C 262.167,168.977 262.834,172.311 263.5,175.5C 259.035,189.563 254.368,203.563 249.5,217.5C 248.853,216.726 248.52,215.726 248.5,214.5C 252.171,201.49 256.004,188.49 260,175.5C 260.497,171.476 260.331,167.476 259.5,163.5 Z"/></g>
<g><path style="opacity:1" fill="#9f7a58" d="M 68.5,124.5 C 68.8333,124.5 69.1667,124.5 69.5,124.5C 71.099,124.232 72.4324,124.566 73.5,125.5C 72.1667,125.5 70.8333,125.5 69.5,125.5C 69.6225,128.292 70.9558,130.292 73.5,131.5C 73.5,133.5 73.5,135.5 73.5,137.5C 72.8186,135.842 71.9853,134.175 71,132.5C 70.8333,133 70.6667,133.5 70.5,134C 73.3273,156.773 75.6606,179.606 77.5,202.5C 77.5782,209.515 77.9115,216.515 78.5,223.5C 74.5872,190.707 71.2538,157.707 68.5,124.5 Z"/></g>
<g><path style="opacity:1" fill="#1b0e07" d="M 68.5,124.5 C 71.2538,157.707 74.5872,190.707 78.5,223.5C 78.8333,228.833 79.1667,234.167 79.5,239.5C 78.6909,237.708 78.1909,235.708 78,233.5C 77.6667,233.833 77.3333,234.167 77,234.5C 75.255,218.328 73.4217,202.161 71.5,186C 71.6537,183.309 71.987,180.642 72.5,178C 70.7869,173.753 69.4536,169.419 68.5,165C 68.6453,151.479 68.6453,137.979 68.5,124.5 Z"/></g>
<g><path style="opacity:0.129" fill="#a0a0a3" d="M 278.5,189.5 C 278.598,191.553 277.931,193.22 276.5,194.5C 276.402,192.447 277.069,190.78 278.5,189.5 Z"/></g>
<g><path style="opacity:1" fill="#a88060" d="M 207.5,160.5 C 206.608,163.292 204.608,164.625 201.5,164.5C 198.951,175.335 197.118,186.335 196,197.5C 193.676,202.51 191.51,207.51 189.5,212.5C 193.05,197.243 196.383,181.909 199.5,166.5C 200.697,162.646 203.364,160.646 207.5,160.5 Z"/></g>
<g><path style="opacity:1" fill="#3d2516" d="M 83.5,169.5 C 84.1667,176.833 84.8333,184.167 85.5,191.5C 85.5,198.167 85.5,204.833 85.5,211.5C 84.6745,207.018 84.1745,202.351 84,197.5C 83.5002,206.827 83.3335,216.161 83.5,225.5C 82.5062,216.014 82.1729,206.348 82.5,196.5C 83.4933,187.682 83.8266,178.682 83.5,169.5 Z"/></g>
<g><path style="opacity:1" fill="#d89f67" d="M 278.5,166.5 C 278.5,167.167 278.5,167.833 278.5,168.5C 277.279,169.028 276.113,169.695 275,170.5C 273.295,174.664 271.962,178.997 271,183.5C 269.437,186.574 267.77,189.574 266,192.5C 265.393,197.716 264.226,202.716 262.5,207.5C 261.5,207.5 260.5,207.5 259.5,207.5C 259.337,205.143 259.503,202.81 260,200.5C 264.871,189.572 268.871,178.239 272,166.5C 274.274,165.189 276.44,165.189 278.5,166.5 Z"/></g>
<g><path style="opacity:1" fill="#311910" d="M 198.5,164.5 C 198.328,165.492 198.662,166.158 199.5,166.5C 196.383,181.909 193.05,197.243 189.5,212.5C 189.5,214.167 189.5,215.833 189.5,217.5C 182.531,242.464 176.531,267.797 171.5,293.5C 169.797,294.66 169.131,293.993 169.5,291.5C 173.966,268.774 178.633,246.108 183.5,223.5C 188.357,206.077 192.69,188.41 196.5,170.5C 197.048,168.374 197.715,166.374 198.5,164.5 Z"/></g>
<g><path style="opacity:0.133" fill="#969696" d="M 275.5,197.5 C 275.598,199.553 274.931,201.22 273.5,202.5C 273.402,200.447 274.069,198.78 275.5,197.5 Z"/></g>
<g><path style="opacity:1" fill="#d09a68" d="M 73.5,137.5 C 73.33,138.822 73.6634,139.989 74.5,141C 76.4727,141.495 78.4727,141.662 80.5,141.5C 80.5,150.167 80.5,158.833 80.5,167.5C 80.6666,182.17 80.4999,196.837 80,211.5C 79.0272,208.421 78.1939,205.421 77.5,202.5C 75.6606,179.606 73.3273,156.773 70.5,134C 70.6667,133.5 70.8333,133 71,132.5C 71.9853,134.175 72.8186,135.842 73.5,137.5 Z"/></g>
<g><path style="opacity:1" fill="#bc8854" d="M 228.5,158.5 C 227.833,158.5 227.167,158.5 226.5,158.5C 226.167,158.5 225.833,158.5 225.5,158.5C 224.566,159.568 224.232,160.901 224.5,162.5C 217.44,161.52 211.44,163.52 206.5,168.5C 204.166,174.337 202.332,180.337 201,186.5C 199.712,197.273 197.045,207.606 193,217.5C 192.576,226.92 190.076,235.587 185.5,243.5C 186.963,234.851 188.297,226.184 189.5,217.5C 189.5,215.833 189.5,214.167 189.5,212.5C 191.51,207.51 193.676,202.51 196,197.5C 197.118,186.335 198.951,175.335 201.5,164.5C 204.608,164.625 206.608,163.292 207.5,160.5C 208.058,159.21 209.058,158.377 210.5,158C 213.785,157.176 217.118,156.676 220.5,156.5C 223.486,156.382 226.152,157.048 228.5,158.5 Z"/></g>
<g><path style="opacity:1" fill="#c79971" d="M 228.5,191.5 C 218.427,224.894 209.094,258.561 200.5,292.5C 198.805,297.947 196.805,303.28 194.5,308.5C 193.711,302.974 194.878,297.974 198,293.5C 198.933,284.938 200.6,276.605 203,268.5C 203.81,266.694 204.976,265.194 206.5,264C 209.123,251.631 212.457,239.465 216.5,227.5C 217,223.5 217.5,219.5 218,215.5C 218.848,212.582 220.182,209.916 222,207.5C 222.337,204.139 222.837,200.806 223.5,197.5C 224.728,194.987 226.395,192.987 228.5,191.5 Z"/></g>
<g><path style="opacity:0.122" fill="#9b9898" d="M 271.5,208.5 C 271.598,210.553 270.931,212.22 269.5,213.5C 269.402,211.447 270.069,209.78 271.5,208.5 Z"/></g>
<g><path style="opacity:1" fill="#271308" d="M 117.5,155.5 C 117.232,157.099 117.566,158.432 118.5,159.5C 117.5,182.831 116.5,206.165 115.5,229.5C 115.5,230.167 115.5,230.833 115.5,231.5C 114.042,243.303 113.376,255.303 113.5,267.5C 112.949,270.807 112.616,274.14 112.5,277.5C 111.686,279.631 111.186,281.964 111,284.5C 110.501,280.179 110.334,275.846 110.5,271.5C 110.834,255.484 111.501,239.484 112.5,223.5C 113.49,217.69 113.823,211.69 113.5,205.5C 115.281,189.702 116.281,173.702 116.5,157.5C 116.5,157.167 116.5,156.833 116.5,156.5C 116.5,155.833 116.833,155.5 117.5,155.5 Z"/></g>
<g><path style="opacity:1" fill="#281208" d="M 85.5,211.5 C 86.3874,220.801 86.7208,230.134 86.5,239.5C 86.6664,248.506 86.4998,257.506 86,266.5C 85.3592,257.329 84.5259,248.329 83.5,239.5C 83.5,234.833 83.5,230.167 83.5,225.5C 83.3335,216.161 83.5002,206.827 84,197.5C 84.1745,202.351 84.6745,207.018 85.5,211.5 Z"/></g>
<g><path style="opacity:1" fill="#b78e6a" d="M 231.5,197.5 C 231.5,198.833 231.5,200.167 231.5,201.5C 226.692,216.738 222.525,232.071 219,247.5C 217.758,249.859 216.258,251.859 214.5,253.5C 219.011,236.457 223.677,219.457 228.5,202.5C 229.687,200.928 230.687,199.261 231.5,197.5 Z"/></g>
<g><path style="opacity:0.102" fill="#b1b2b3" d="M 71.5,212.5 C 74.7702,240.252 76.4368,268.252 76.5,296.5C 74.7704,268.657 73.1037,240.657 71.5,212.5 Z"/></g>
<g><path style="opacity:1" fill="#c89b6f" d="M 278.5,168.5 C 259.814,218.898 241.147,269.232 222.5,319.5C 221.167,319.833 219.833,320.167 218.5,320.5C 219.581,315.257 221.248,310.257 223.5,305.5C 225.121,301.258 226.454,296.925 227.5,292.5C 230.833,282.833 234.167,273.167 237.5,263.5C 240.276,257.501 242.276,251.167 243.5,244.5C 246.035,237.563 248.368,230.563 250.5,223.5C 251.497,223.53 252.164,223.03 252.5,222C 253.682,216.473 256.015,211.64 259.5,207.5C 260.5,207.5 261.5,207.5 262.5,207.5C 264.226,202.716 265.393,197.716 266,192.5C 267.77,189.574 269.437,186.574 271,183.5C 271.962,178.997 273.295,174.664 275,170.5C 276.113,169.695 277.279,169.028 278.5,168.5 Z"/></g>
<g><path style="opacity:1" fill="#c19875" d="M 150.5,223.5 C 150.14,231.717 149.14,239.717 147.5,247.5C 146.786,239.056 147.786,231.056 150.5,223.5 Z"/></g>
<g><path style="opacity:0.996" fill="#161211" d="M 325.5,47.5 C 326.167,48.8333 327.167,49.8333 328.5,50.5C 329.32,54.7819 329.32,59.1153 328.5,63.5C 327.768,69.0937 326.435,74.4271 324.5,79.5C 322.926,81.1016 322.259,83.1016 322.5,85.5C 321.262,87.2143 320.595,89.2143 320.5,91.5C 320.737,92.791 320.404,93.791 319.5,94.5C 318.076,96.5145 317.41,98.8478 317.5,101.5C 316.204,106.393 314.538,111.06 312.5,115.5C 310.733,117.792 309.733,120.458 309.5,123.5C 308.069,124.78 307.402,126.447 307.5,128.5C 306.326,129.514 305.66,130.847 305.5,132.5C 304.738,134.262 303.404,135.262 301.5,135.5C 299.077,134.644 296.911,135.311 295,137.5C 294.805,138.819 294.972,140.153 295.5,141.5C 293.415,143.684 292.415,146.351 292.5,149.5C 290.926,151.102 290.259,153.102 290.5,155.5C 288.065,159.799 286.398,164.466 285.5,169.5C 285.405,171.786 284.738,173.786 283.5,175.5C 281.399,178.797 280.065,182.463 279.5,186.5C 279.737,187.791 279.404,188.791 278.5,189.5C 277.069,190.78 276.402,192.447 276.5,194.5C 276.737,195.791 276.404,196.791 275.5,197.5C 274.069,198.78 273.402,200.447 273.5,202.5C 273.405,204.786 272.738,206.786 271.5,208.5C 270.069,209.78 269.402,211.447 269.5,213.5C 267.405,221.126 264.738,228.459 261.5,235.5C 259.926,237.102 259.259,239.102 259.5,241.5C 258.733,245.149 257.4,248.482 255.5,251.5C 253.926,253.102 253.259,255.102 253.5,257.5C 252.204,262.393 250.538,267.06 248.5,271.5C 247.069,272.082 245.736,272.915 244.5,274C 245.406,275.699 245.739,277.533 245.5,279.5C 244.739,283.784 243.405,287.784 241.5,291.5C 240.069,292.78 239.402,294.447 239.5,296.5C 239.737,297.791 239.404,298.791 238.5,299.5C 236.926,301.102 236.259,303.102 236.5,305.5C 233.963,314.228 230.629,322.562 226.5,330.5C 225.069,331.78 224.402,333.447 224.5,335.5C 224.34,337.153 223.674,338.486 222.5,339.5C 221.069,340.78 220.402,342.447 220.5,344.5C 220.167,344.5 219.833,344.5 219.5,344.5C 217.69,341.091 218.357,337.924 221.5,335C 219.893,335.019 218.226,335.185 216.5,335.5C 216.703,333.956 217.37,332.622 218.5,331.5C 214.871,330.762 211.204,330.929 207.5,332C 169.851,334.875 133.184,330.709 97.5,319.5C 101.616,318.391 105.45,318.724 109,320.5C 109.925,319.953 110.758,319.287 111.5,318.5C 107.825,317.944 104.325,316.944 101,315.5C 100.667,315.833 100.333,316.167 100,316.5C 99.5899,315.099 99.0899,313.766 98.5,312.5C 102.216,314.531 106.216,315.531 110.5,315.5C 118.913,318.101 127.579,320.101 136.5,321.5C 137.568,322.434 138.901,322.768 140.5,322.5C 162.907,325.486 185.24,326.152 207.5,324.5C 212.181,324.331 216.848,323.998 221.5,323.5C 221.433,322.041 221.766,320.708 222.5,319.5C 241.147,269.232 259.814,218.898 278.5,168.5C 278.5,167.833 278.5,167.167 278.5,166.5C 279.481,164.604 280.481,162.604 281.5,160.5C 274.857,160.1 270.19,163.1 267.5,169.5C 266.833,168.833 266.167,168.167 265.5,167.5C 264.74,163.639 262.74,160.639 259.5,158.5C 261.95,158.298 264.283,158.631 266.5,159.5C 267.15,159.804 267.817,160.137 268.5,160.5C 273.075,157.209 278.075,155.042 283.5,154C 284.937,150.625 285.937,147.125 286.5,143.5C 287.6,141.723 288.434,139.723 289,137.5C 291.479,135.034 293.979,132.701 296.5,130.5C 297.721,129.972 298.887,129.305 300,128.5C 306.853,110.732 313.02,92.7315 318.5,74.5C 319.954,71.3301 321.287,67.9968 322.5,64.5C 321.667,64.1667 320.833,63.8333 320,63.5C 315.052,64.6283 310.219,65.6283 305.5,66.5C 284.831,66.6666 264.164,66.5 243.5,66C 236.418,65.6606 229.418,64.8273 222.5,63.5C 225.483,62.6125 228.65,61.9458 232,61.5C 236.444,62.744 240.944,63.744 245.5,64.5C 264.751,64.2279 284.085,64.2279 303.5,64.5C 306.109,63.7695 308.776,63.2695 311.5,63C 312.167,62.3333 312.833,61.6667 313.5,61C 307.638,59.9774 301.804,59.4774 296,59.5C 273.636,61.2891 251.469,60.9558 229.5,58.5C 226.325,58.4537 223.658,59.4537 221.5,61.5C 221.94,60.0475 221.274,58.8808 219.5,58C 221.619,57.6582 221.953,56.8249 220.5,55.5C 248.26,58.5127 275.927,59.1793 303.5,57.5C 309.373,57.404 315.04,56.7373 320.5,55.5C 321.5,55.5 322.5,55.5 323.5,55.5C 323.802,52.6275 324.469,49.9608 325.5,47.5 Z"/></g>
<g><path style="opacity:0.137" fill="#9a979a" d="M 261.5,235.5 C 261.405,237.786 260.738,239.786 259.5,241.5C 259.259,239.102 259.926,237.102 261.5,235.5 Z"/></g>
<g><path style="opacity:1" fill="#bb9470" d="M 245.5,228.5 C 241.253,243.852 236.253,258.852 230.5,273.5C 232.479,265.215 234.479,256.882 236.5,248.5C 238.755,241.362 241.755,234.695 245.5,228.5 Z"/></g>
<g><path style="opacity:1" fill="#745133" d="M 243.5,244.5 C 242.276,251.167 240.276,257.501 237.5,263.5C 238.724,256.833 240.724,250.499 243.5,244.5 Z"/></g>
<g><path style="opacity:1" fill="#be9774" d="M 80.5,167.5 C 80.8333,167.5 81.1667,167.5 81.5,167.5C 81.3068,177.194 81.6401,186.861 82.5,196.5C 82.1729,206.348 82.5062,216.014 83.5,225.5C 83.5,230.167 83.5,234.833 83.5,239.5C 83.5672,250.177 83.9005,260.844 84.5,271.5C 84.0043,281.643 84.671,291.643 86.5,301.5C 86.0773,303.781 86.744,305.448 88.5,306.5C 90.0261,308.13 92.0261,308.963 94.5,309C 95.3805,309.708 96.0472,310.542 96.5,311.5C 91.2217,311.358 86.8884,309.358 83.5,305.5C 83.351,293.983 82.6843,282.65 81.5,271.5C 81.4956,260.786 80.8289,250.12 79.5,239.5C 79.1667,234.167 78.8333,228.833 78.5,223.5C 77.9115,216.515 77.5782,209.515 77.5,202.5C 78.1939,205.421 79.0272,208.421 80,211.5C 80.4999,196.837 80.6666,182.17 80.5,167.5 Z"/></g>
<g><path style="opacity:1" fill="#735339" d="M 151.5,244.5 C 151.5,245.5 151.5,246.5 151.5,247.5C 150.978,254.372 149.978,261.038 148.5,267.5C 148.778,259.604 149.778,251.937 151.5,244.5 Z"/></g>
<g><path style="opacity:0.184" fill="#84828b" d="M 255.5,251.5 C 255.405,253.786 254.738,255.786 253.5,257.5C 253.259,255.102 253.926,253.102 255.5,251.5 Z"/></g>
<g><path style="opacity:1" fill="#2e170e" d="M 235.5,166.5 C 236.167,167.833 236.833,169.167 237.5,170.5C 237.5,170.833 237.5,171.167 237.5,171.5C 234.384,181.706 231.384,192.04 228.5,202.5C 223.677,219.457 219.011,236.457 214.5,253.5C 213.32,257.504 211.82,261.504 210,265.5C 208.053,273.168 206.219,280.834 204.5,288.5C 204.5,288.833 204.5,289.167 204.5,289.5C 203.203,291.371 202.203,293.371 201.5,295.5C 200.596,294.791 200.263,293.791 200.5,292.5C 209.094,258.561 218.427,224.894 228.5,191.5C 230.765,186.465 232.432,181.132 233.5,175.5C 234.913,172.781 235.58,169.781 235.5,166.5 Z"/></g>
<g><path style="opacity:1" fill="#9f7c57" d="M 115.5,231.5 C 115.5,239.5 115.5,247.5 115.5,255.5C 116.089,259.971 115.423,263.971 113.5,267.5C 113.376,255.303 114.042,243.303 115.5,231.5 Z"/></g>
<g><path style="opacity:1" fill="#d29f72" d="M 183.5,223.5 C 178.633,246.108 173.966,268.774 169.5,291.5C 167.05,298.548 165.384,305.881 164.5,313.5C 163.135,316.599 162.135,319.932 161.5,323.5C 160.818,322.757 160.151,322.091 159.5,321.5C 164.555,310.737 165.222,299.737 161.5,288.5C 163.782,287.1 165.282,287.766 166,290.5C 168.73,282.552 167.563,275.385 162.5,269C 162.625,267.373 163.125,265.873 164,264.5C 165.163,266.285 165.83,268.285 166,270.5C 167.356,271.38 168.856,271.714 170.5,271.5C 170.359,266.133 170.192,260.799 170,255.5C 171.314,256.313 172.481,257.313 173.5,258.5C 174.324,255.215 174.824,251.882 175,248.5C 178.405,240.219 181.238,231.886 183.5,223.5 Z"/></g>
<g><path style="opacity:1" fill="#967458" d="M 146.5,258.5 C 146.562,263.076 145.895,267.409 144.5,271.5C 144.28,266.9 144.946,262.567 146.5,258.5 Z"/></g>
<g><path style="opacity:1" fill="#644224" d="M 83.5,239.5 C 84.5259,248.329 85.3592,257.329 86,266.5C 86.4998,257.506 86.6664,248.506 86.5,239.5C 86.8333,239.5 87.1667,239.5 87.5,239.5C 87.5,250.167 87.5,260.833 87.5,271.5C 86.5,271.5 85.5,271.5 84.5,271.5C 83.9005,260.844 83.5672,250.177 83.5,239.5 Z"/></g>
<g><path style="opacity:1" fill="#cc9a6e" d="M 153.5,241.5 C 152.843,253.84 152.009,266.174 151,278.5C 150.581,279.672 149.915,280.672 149,281.5C 147.709,294.128 145.875,306.628 143.5,319C 148.618,321.08 153.951,321.913 159.5,321.5C 156.024,322.643 152.358,322.81 148.5,322C 145.639,322.03 143.305,321.197 141.5,319.5C 141.5,318.5 141.5,317.5 141.5,316.5C 144.402,300.289 146.735,283.956 148.5,267.5C 149.978,261.038 150.978,254.372 151.5,247.5C 152.167,245.5 152.833,243.5 153.5,241.5 Z"/></g>
<g><path style="opacity:0.776" fill="#4e4e4f" d="M 248.5,271.5 C 247.871,274.397 246.871,277.064 245.5,279.5C 245.739,277.533 245.406,275.699 244.5,274C 245.736,272.915 247.069,272.082 248.5,271.5 Z"/></g>
<g><path style="opacity:1" fill="#be9571" d="M 214.5,253.5 C 213.911,260.645 212.745,267.645 211,274.5C 208.878,278.198 207.545,282.198 207,286.5C 206.292,287.381 205.458,288.047 204.5,288.5C 206.219,280.834 208.053,273.168 210,265.5C 211.82,261.504 213.32,257.504 214.5,253.5 Z"/></g>
<g><path style="opacity:1" fill="#2d170e" d="M 164.5,154.5 C 161.504,161.785 160.171,169.452 160.5,177.5C 158.614,184.916 157.614,192.583 157.5,200.5C 155.238,215.114 153.238,229.781 151.5,244.5C 149.778,251.937 148.778,259.604 148.5,267.5C 146.735,283.956 144.402,300.289 141.5,316.5C 140.94,311.351 140.94,306.018 141.5,300.5C 142.698,290.855 143.698,281.189 144.5,271.5C 145.895,267.409 146.562,263.076 146.5,258.5C 146.724,254.821 147.058,251.154 147.5,247.5C 149.14,239.717 150.14,231.717 150.5,223.5C 151.473,221.052 151.806,218.385 151.5,215.5C 154.295,198.245 156.962,180.911 159.5,163.5C 159.5,161.5 159.5,159.5 159.5,157.5C 160.117,157.611 160.617,157.944 161,158.5C 161.66,156.676 162.827,155.343 164.5,154.5 Z"/></g>
<g><path style="opacity:1" fill="#562f11" d="M 110.5,271.5 C 110.334,275.846 110.501,280.179 111,284.5C 111.186,281.964 111.686,279.631 112.5,277.5C 112.299,283.509 111.966,289.509 111.5,295.5C 109.631,293.365 108.964,290.698 109.5,287.5C 109.179,281.974 109.512,276.64 110.5,271.5 Z"/></g>
<g><path style="opacity:1" fill="#a9784a" d="M 84.5,271.5 C 85.5,271.5 86.5,271.5 87.5,271.5C 87.8274,281.681 87.494,291.681 86.5,301.5C 84.671,291.643 84.0043,281.643 84.5,271.5 Z"/></g>
<g><path style="opacity:0.129" fill="#9e9e98" d="M 241.5,291.5 C 241.598,293.553 240.931,295.22 239.5,296.5C 239.402,294.447 240.069,292.78 241.5,291.5 Z"/></g>
<g><path style="opacity:1" fill="#412c1d" d="M 81.5,271.5 C 82.6843,282.65 83.351,293.983 83.5,305.5C 81.8711,294.376 81.2044,283.042 81.5,271.5 Z"/></g>
<g><path style="opacity:1" fill="#583412" d="M 226.5,287.5 C 226.643,289.262 226.309,290.929 225.5,292.5C 225.97,293.463 226.637,293.463 227.5,292.5C 226.454,296.925 225.121,301.258 223.5,305.5C 221.797,306.66 221.131,305.993 221.5,303.5C 222.566,297.88 224.233,292.547 226.5,287.5 Z"/></g>
<g><path style="opacity:1" fill="#8e6137" d="M 109.5,287.5 C 108.964,290.698 109.631,293.365 111.5,295.5C 110.68,301.797 110.347,308.131 110.5,314.5C 110.5,314.833 110.5,315.167 110.5,315.5C 106.216,315.531 102.216,314.531 98.5,312.5C 97.8333,312.5 97.5,312.167 97.5,311.5C 101.387,311.91 105.053,312.91 108.5,314.5C 108.173,305.318 108.507,296.318 109.5,287.5 Z"/></g>
<g><path style="opacity:0.169" fill="#7c857c" d="M 238.5,299.5 C 238.405,301.786 237.738,303.786 236.5,305.5C 236.259,303.102 236.926,301.102 238.5,299.5 Z"/></g>
<g><path style="opacity:1" fill="#562e0f" d="M 200.5,292.5 C 200.263,293.791 200.596,294.791 201.5,295.5C 199.705,302.887 197.705,310.22 195.5,317.5C 194.662,317.842 194.328,318.508 194.5,319.5C 194.167,319.5 193.833,319.5 193.5,319.5C 193.724,315.821 194.058,312.154 194.5,308.5C 196.805,303.28 198.805,297.947 200.5,292.5 Z"/></g>
<g><path style="opacity:0.098" fill="#bebebe" d="M 76.5,298.5 C 77.9714,308.965 78.638,319.632 78.5,330.5C 77.0992,320.03 76.4326,309.364 76.5,298.5 Z"/></g>
<g><path style="opacity:1" fill="#c6996d" d="M 204.5,289.5 C 204.664,292.187 204.497,294.854 204,297.5C 201.08,303.849 199.413,310.515 199,317.5C 197.624,320.125 196.458,320.125 195.5,317.5C 197.705,310.22 199.705,302.887 201.5,295.5C 202.203,293.371 203.203,291.371 204.5,289.5 Z"/></g>
<g><path style="opacity:1" fill="#ce9c6f" d="M 112.5,223.5 C 111.501,239.484 110.834,255.484 110.5,271.5C 109.512,276.64 109.179,281.974 109.5,287.5C 108.507,296.318 108.173,305.318 108.5,314.5C 105.053,312.91 101.387,311.91 97.5,311.5C 97.1667,311.5 96.8333,311.5 96.5,311.5C 96.0472,310.542 95.3805,309.708 94.5,309C 92.0261,308.963 90.0261,308.13 88.5,306.5C 93.5335,307.964 98.7002,309.298 104,310.5C 105,309.5 106,308.5 107,307.5C 107.759,294.151 107.592,280.818 106.5,267.5C 107.192,259.848 107.692,252.181 108,244.5C 109.604,237.287 111.104,230.287 112.5,223.5 Z"/></g>
<g><path style="opacity:0.993" fill="#121111" d="M 117.5,9.5 C 118.167,9.5 118.833,9.5 119.5,9.5C 131.291,11.2487 143.291,12.2487 155.5,12.5C 159.548,12.3946 163.548,12.7279 167.5,13.5C 172.568,15.1776 177.902,15.8443 183.5,15.5C 188.616,16.8063 193.949,17.473 199.5,17.5C 215.376,20.4878 231.376,23.4878 247.5,26.5C 248.209,27.404 249.209,27.7373 250.5,27.5C 250.5,29.1667 250.5,30.8333 250.5,32.5C 248.883,31.962 247.216,31.6287 245.5,31.5C 241.167,30.8333 236.833,30.1667 232.5,29.5C 229.546,28.7287 226.546,28.062 223.5,27.5C 218.04,26.4919 212.707,25.4919 207.5,24.5C 203.081,23.0285 198.414,22.3618 193.5,22.5C 181.074,21.6577 168.741,20.1577 156.5,18C 149.508,17.5004 142.508,17.3337 135.5,17.5C 125.753,15.3684 115.753,14.3684 105.5,14.5C 101.012,13.8341 96.3457,13.5008 91.5,13.5C 84.5962,13.3083 77.9295,13.975 71.5,15.5C 59.4428,16.5788 58.4428,20.2455 68.5,26.5C 68.5,27.1667 68.8333,27.5 69.5,27.5C 76.5071,30.5952 83.8405,33.0952 91.5,35C 107.569,37.5114 123.569,40.3447 139.5,43.5C 143.135,44.1143 146.802,44.4476 150.5,44.5C 150.833,44.5 151.167,44.5 151.5,44.5C 153.148,45.9265 155.148,46.7599 157.5,47C 162.532,47.3357 167.532,47.8357 172.5,48.5C 179.264,50.2354 186.264,51.2354 193.5,51.5C 194.167,51.5 194.833,51.5 195.5,51.5C 199.9,53.1042 204.566,53.7709 209.5,53.5C 210.5,53.5 211.5,53.5 212.5,53.5C 213.568,54.4345 214.901,54.7678 216.5,54.5C 217.568,55.4345 218.901,55.7678 220.5,55.5C 221.953,56.8249 221.619,57.6582 219.5,58C 221.274,58.8808 221.94,60.0475 221.5,61.5C 223.658,59.4537 226.325,58.4537 229.5,58.5C 251.469,60.9558 273.636,61.2891 296,59.5C 301.804,59.4774 307.638,59.9774 313.5,61C 312.833,61.6667 312.167,62.3333 311.5,63C 308.776,63.2695 306.109,63.7695 303.5,64.5C 284.085,64.2279 264.751,64.2279 245.5,64.5C 240.944,63.744 236.444,62.744 232,61.5C 228.65,61.9458 225.483,62.6125 222.5,63.5C 221.5,63.5 220.5,63.5 219.5,63.5C 203.482,61.7203 187.482,59.7203 171.5,57.5C 169.052,56.5269 166.385,56.1936 163.5,56.5C 158.338,55.269 153.004,54.269 147.5,53.5C 146.192,52.7677 144.858,51.9344 143.5,51C 132.988,48.5863 122.321,47.0863 111.5,46.5C 94.67,44.4724 78.67,39.8057 63.5,32.5C 63.1667,31.8333 62.8333,31.1667 62.5,30.5C 62.189,29.5222 61.5223,28.8555 60.5,28.5C 59.3336,50.4924 59.1669,72.4924 60,94.5C 62.5184,97.5707 65.0184,100.571 67.5,103.5C 67.5,109.167 67.5,114.833 67.5,120.5C 69.2774,121.6 71.2774,122.434 73.5,123C 71.9419,123.21 70.6085,123.71 69.5,124.5C 69.1667,124.5 68.8333,124.5 68.5,124.5C 68.6453,137.979 68.6453,151.479 68.5,165C 69.4536,169.419 70.7869,173.753 72.5,178C 71.987,180.642 71.6537,183.309 71.5,186C 73.4217,202.161 75.255,218.328 77,234.5C 77.3333,234.167 77.6667,233.833 78,233.5C 78.1909,235.708 78.6909,237.708 79.5,239.5C 80.8289,250.12 81.4956,260.786 81.5,271.5C 81.2044,283.042 81.8711,294.376 83.5,305.5C 86.8884,309.358 91.2217,311.358 96.5,311.5C 96.8333,311.5 97.1667,311.5 97.5,311.5C 97.5,312.167 97.8333,312.5 98.5,312.5C 99.0899,313.766 99.5899,315.099 100,316.5C 100.333,316.167 100.667,315.833 101,315.5C 104.325,316.944 107.825,317.944 111.5,318.5C 110.758,319.287 109.925,319.953 109,320.5C 105.45,318.724 101.616,318.391 97.5,319.5C 93.2164,318.185 88.8831,316.851 84.5,315.5C 84.2065,319.437 84.5399,323.27 85.5,327C 118.211,343.76 152.878,349.76 189.5,345C 198.652,344.422 207.318,342.088 215.5,338C 216.252,337.329 216.586,336.496 216.5,335.5C 218.226,335.185 219.893,335.019 221.5,335C 218.357,337.924 217.69,341.091 219.5,344.5C 218.89,345.391 218.557,346.391 218.5,347.5C 217.5,350.5 215.5,352.5 212.5,353.5C 207.948,354.057 203.615,355.057 199.5,356.5C 176.072,358.438 152.739,357.271 129.5,353C 125.291,352.119 121.291,350.953 117.5,349.5C 113.105,347.565 108.438,346.231 103.5,345.5C 98.7769,344.63 94.4436,342.964 90.5,340.5C 90.0269,339.094 89.0269,338.427 87.5,338.5C 87.0269,337.094 86.0269,336.427 84.5,336.5C 84.0269,335.094 83.0269,334.427 81.5,334.5C 79.7376,333.738 78.7376,332.404 78.5,330.5C 78.638,319.632 77.9714,308.965 76.5,298.5C 76.5,297.833 76.5,297.167 76.5,296.5C 76.4368,268.252 74.7702,240.252 71.5,212.5C 70.5701,208.6 70.2367,204.6 70.5,200.5C 69.5694,180.58 67.5694,160.913 64.5,141.5C 63.6932,135.536 63.3599,129.536 63.5,123.5C 63.6661,117.824 63.4994,112.157 63,106.5C 62.6174,105.944 62.1174,105.611 61.5,105.5C 58.7852,102.118 55.7852,99.1185 52.5,96.5C 51.6749,70.5489 52.1749,44.5489 54,18.5C 54.4983,16.4556 55.665,15.1223 57.5,14.5C 59.0269,14.573 60.0269,13.9063 60.5,12.5C 63.4951,12.7062 66.1617,12.0395 68.5,10.5C 84.8177,9.65041 101.151,9.31708 117.5,9.5 Z"/></g>
<g><path style="opacity:1" fill="#e4dfcf" d="M 163.5,56.5 C 166.385,56.1936 169.052,56.5269 171.5,57.5C 170.761,57.369 170.094,57.5357 169.5,58C 170.861,59.5843 171.528,61.4176 171.5,63.5C 168.025,61.5928 164.691,59.4262 161.5,57C 162.094,56.5357 162.761,56.369 163.5,56.5 Z"/></g>
<g><path style="opacity:1" fill="#29170f" d="M 111.5,46.5 C 122.321,47.0863 132.988,48.5863 143.5,51C 144.858,51.9344 146.192,52.7677 147.5,53.5C 135.26,51.7668 123.26,49.4335 111.5,46.5 Z"/></g>
<g><path style="opacity:1" fill="#edebe2" d="M 62.5,30.5 C 62.8333,31.1667 63.1667,31.8333 63.5,32.5C 63.2714,34.433 62.4381,36.0997 61,37.5C 60.8333,36.3333 60.6667,35.1667 60.5,34C 60.6083,32.3189 61.2749,31.1522 62.5,30.5 Z"/></g>
<g><path style="opacity:1" fill="#c4b298" d="M 79.5,24.5 C 77.5,25.5 75.5,26.5 73.5,27.5C 72.1667,27.5 70.8333,27.5 69.5,27.5C 68.8333,27.5 68.5,27.1667 68.5,26.5C 72.0712,25.3578 75.7379,24.6911 79.5,24.5 Z"/></g>
<g><path style="opacity:1" fill="#c0a585" d="M 119.5,22.5 C 123.953,24.2263 128.286,26.2263 132.5,28.5C 125.71,26.0529 118.71,24.3862 111.5,23.5C 109.022,22.8359 106.355,22.5025 103.5,22.5C 95.5152,23.3866 87.5152,24.0533 79.5,24.5C 79.5,24.1667 79.5,23.8333 79.5,23.5C 92.7828,21.3225 106.116,20.9892 119.5,22.5 Z"/></g>
<g><path style="opacity:1" fill="#3c4648" d="M 193.5,22.5 C 198.414,22.3618 203.081,23.0285 207.5,24.5C 202.586,24.6382 197.919,23.9715 193.5,22.5 Z"/></g>
<g><path style="opacity:1" fill="#e9ecd8" d="M 119.5,22.5 C 106.116,20.9892 92.7828,21.3225 79.5,23.5C 82.7478,21.7609 86.4144,20.5942 90.5,20C 99.8794,19.184 109.213,19.5173 118.5,21C 119.056,21.3826 119.389,21.8826 119.5,22.5 Z"/></g>
<g><path style="opacity:1" fill="#616a6c" d="M 105.5,14.5 C 94.1483,14.3725 82.815,14.7059 71.5,15.5C 77.9295,13.975 84.5962,13.3083 91.5,13.5C 96.3457,13.5008 101.012,13.8341 105.5,14.5 Z"/></g>
<g><path style="opacity:1" fill="#805528" d="M 221.5,303.5 C 221.131,305.993 221.797,306.66 223.5,305.5C 221.248,310.257 219.581,315.257 218.5,320.5C 217.849,321.091 217.182,321.757 216.5,322.5C 215.893,322.376 215.56,322.043 215.5,321.5C 216.902,315.195 218.902,309.195 221.5,303.5 Z"/></g>
<g><path style="opacity:1" fill="#c6986f" d="M 144.5,271.5 C 143.698,281.189 142.698,290.855 141.5,300.5C 139.925,307.27 139.259,314.27 139.5,321.5C 138.5,321.5 137.5,321.5 136.5,321.5C 127.579,320.101 118.913,318.101 110.5,315.5C 110.5,315.167 110.5,314.833 110.5,314.5C 119.482,315.766 128.482,317.099 137.5,318.5C 138.456,312.153 138.456,305.82 137.5,299.5C 137.991,295.528 138.991,291.695 140.5,288C 140.113,286.177 139.779,284.343 139.5,282.5C 141.004,278.611 142.67,274.944 144.5,271.5 Z"/></g>
<g><path style="opacity:1" fill="#5f3920" d="M 141.5,300.5 C 140.94,306.018 140.94,311.351 141.5,316.5C 141.5,317.5 141.5,318.5 141.5,319.5C 140.596,320.209 140.263,321.209 140.5,322.5C 138.901,322.768 137.568,322.434 136.5,321.5C 137.5,321.5 138.5,321.5 139.5,321.5C 139.259,314.27 139.925,307.27 141.5,300.5 Z"/></g>
<g><path style="opacity:1" fill="#452110" d="M 169.5,291.5 C 169.131,293.993 169.797,294.66 171.5,293.5C 169.164,303.519 166.83,313.519 164.5,323.5C 163.556,320.332 163.556,316.999 164.5,313.5C 165.384,305.881 167.05,298.548 169.5,291.5 Z"/></g>
<g><path style="opacity:1" fill="#ae8560" d="M 189.5,217.5 C 188.297,226.184 186.963,234.851 185.5,243.5C 182.65,255.623 179.483,267.623 176,279.5C 173.605,291.931 171.105,304.431 168.5,317C 168.833,317.833 169.167,318.667 169.5,319.5C 173.398,322.202 177.732,323.535 182.5,323.5C 187.131,324.284 190.798,322.951 193.5,319.5C 193.833,319.5 194.167,319.5 194.5,319.5C 195.23,321.045 196.563,321.878 198.5,322C 204.204,322.687 209.87,322.521 215.5,321.5C 215.56,322.043 215.893,322.376 216.5,322.5C 217.182,321.757 217.849,321.091 218.5,320.5C 219.833,320.167 221.167,319.833 222.5,319.5C 221.766,320.708 221.433,322.041 221.5,323.5C 216.848,323.998 212.181,324.331 207.5,324.5C 193.078,324.447 178.744,324.113 164.5,323.5C 166.83,313.519 169.164,303.519 171.5,293.5C 176.531,267.797 182.531,242.464 189.5,217.5 Z"/></g>
<g><path style="opacity:1" fill="#8a6b50" d="M 164.5,313.5 C 163.556,316.999 163.556,320.332 164.5,323.5C 178.744,324.113 193.078,324.447 207.5,324.5C 185.24,326.152 162.907,325.486 140.5,322.5C 140.263,321.209 140.596,320.209 141.5,319.5C 143.305,321.197 145.639,322.03 148.5,322C 152.358,322.81 156.024,322.643 159.5,321.5C 160.151,322.091 160.818,322.757 161.5,323.5C 162.135,319.932 163.135,316.599 164.5,313.5 Z"/></g>
<g><path style="opacity:1" fill="#aca8a4" d="M 97.5,319.5 C 133.184,330.709 169.851,334.875 207.5,332C 211.204,330.929 214.871,330.762 218.5,331.5C 217.37,332.622 216.703,333.956 216.5,335.5C 216.586,336.496 216.252,337.329 215.5,338C 207.318,342.088 198.652,344.422 189.5,345C 152.878,349.76 118.211,343.76 85.5,327C 84.5399,323.27 84.2065,319.437 84.5,315.5C 88.8831,316.851 93.2164,318.185 97.5,319.5 Z"/></g>
<g><path style="opacity:0.118" fill="#acacac" d="M 226.5,330.5 C 226.598,332.553 225.931,334.22 224.5,335.5C 224.402,333.447 225.069,331.78 226.5,330.5 Z"/></g>
<g><path style="opacity:0.137" fill="#919391" d="M 81.5,334.5 C 83.0269,334.427 84.0269,335.094 84.5,336.5C 82.9731,336.573 81.9731,335.906 81.5,334.5 Z"/></g>
<g><path style="opacity:0.149" fill="#7d7d7d" d="M 84.5,336.5 C 86.0269,336.427 87.0269,337.094 87.5,338.5C 85.9731,338.573 84.9731,337.906 84.5,336.5 Z"/></g>
<g><path style="opacity:0.125" fill="#797979" d="M 87.5,338.5 C 89.0269,338.427 90.0269,339.094 90.5,340.5C 88.9731,340.573 87.9731,339.906 87.5,338.5 Z"/></g>
<g><path style="opacity:0.098" fill="#b4b2b4" d="M 222.5,339.5 C 222.598,341.553 221.931,343.22 220.5,344.5C 220.402,342.447 221.069,340.78 222.5,339.5 Z"/></g>
<g><path style="opacity:0.424" fill="#767676" d="M 103.5,345.5 C 108.438,346.231 113.105,347.565 117.5,349.5C 112.471,349.08 107.805,347.746 103.5,345.5 Z"/></g>
<g><path style="opacity:0.09" fill="#98989d" d="M 219.5,344.5 C 219.833,344.5 220.167,344.5 220.5,344.5C 220.573,346.027 219.906,347.027 218.5,347.5C 218.557,346.391 218.89,345.391 219.5,344.5 Z"/></g>
<g><path style="opacity:0.055" fill="#afafaf" d="M 212.5,353.5 C 208.526,355.575 204.192,356.575 199.5,356.5C 203.615,355.057 207.948,354.057 212.5,353.5 Z"/></g>
</svg>
